<svg xmlns="http://www.w3.org/2000/svg" xmlns:xlink="http://www.w3.org/1999/xlink" width="480" zoomAndPan="magnify" viewBox="0 0 360 503.999982" height="672" preserveAspectRatio="xMidYMid meet" version="1.0"><defs><clipPath id="2a36f0278c"><path d="M 256 414 L 268 414 L 268 425.125 L 256 425.125 Z M 256 414 " clip-rule="nonzero"/></clipPath></defs><path fill="#ff8dbe" d="M 358.964844 399.148438 C 358.652344 398.675781 358.179688 398.292969 357.585938 398.019531 C 356.425781 397.484375 355.183594 397.507812 354.054688 398.230469 C 353.625 398.5 353.230469 398.8125 353.964844 399.269531 C 354.429688 399.558594 354.054688 399.882812 353.847656 400.207031 C 353.019531 401.546875 353.128906 403.046875 354.105469 404.246094 C 354.671875 404.933594 355.410156 405.152344 356.265625 404.980469 C 357.421875 404.757812 358.230469 404.328125 358.730469 403.625 C 359.648438 402.324219 359.511719 399.972656 358.964844 399.148438 Z M 360 404.136719 C 358.992188 405.695312 357.050781 406.273438 355.457031 406.203125 C 353.847656 406.132812 352.492188 404.691406 352.214844 402.875 C 352.058594 401.816406 351.949219 400.738281 351.917969 399.664062 C 351.878906 398.5625 352.414062 397.71875 353.378906 397.152344 C 356.941406 395.042969 360.695312 397.785156 360.667969 400.820312 C 360.667969 400.871094 360.667969 400.921875 360.667969 400.960938 C 360.667969 401.042969 360.972656 402.632812 360 404.136719 " fill-opacity="1" fill-rule="nonzero"/><path fill="#ff8dbe" d="M 63.46875 355.160156 C 61.765625 355.210938 59.808594 357.191406 59.816406 358.855469 C 59.820312 360.671875 62.128906 362.605469 64.210938 362.535156 C 65.484375 362.484375 67.496094 360.578125 67.488281 359.410156 C 67.480469 356.769531 65.894531 355.089844 63.46875 355.160156 Z M 63.398438 354.058594 C 66.933594 353.949219 69.492188 357.183594 68.394531 360.316406 C 67.558594 362.695312 65.121094 364.53125 62.359375 363.269531 C 60.714844 362.523438 59.101562 361.730469 58.671875 359.710938 C 58.4375 358.585938 58.617188 357.566406 59.398438 356.6875 C 59.71875 356.320312 60.050781 355.964844 60.351562 355.582031 C 61.171875 354.53125 62.246094 354.007812 63.398438 354.058594 " fill-opacity="1" fill-rule="nonzero"/><path fill="#ff8dbe" d="M 270.371094 237.019531 C 269.242188 237.03125 268.621094 237.613281 268.265625 238.441406 C 267.894531 239.304688 267.730469 240.195312 268.566406 240.957031 C 268.789062 241.160156 268.972656 241.445312 269.082031 241.726562 C 269.746094 243.488281 271.207031 244.089844 272.878906 244.246094 C 274.253906 244.382812 275.429688 243.21875 275.105469 241.9375 C 274.789062 240.71875 274.234375 239.5 273.507812 238.480469 C 272.773438 237.449219 271.523438 237.058594 270.371094 237.019531 Z M 276.214844 242.003906 C 276.277344 244.253906 274.746094 245.636719 272.5 245.351562 C 269.769531 245 267.984375 243.480469 267.074219 240.925781 C 266.140625 238.328125 268.042969 235.839844 270.792969 236.007812 C 273.78125 236.191406 276.128906 238.789062 276.214844 242.003906 " fill-opacity="1" fill-rule="nonzero"/><path fill="#ff8dbe" d="M 151.617188 401.171875 C 151.820312 401.125 152.042969 401.070312 152.261719 401 C 153.542969 400.578125 154.25 399.722656 154.304688 398.585938 C 154.359375 397.265625 153.800781 396.285156 152.738281 395.84375 C 151.402344 395.289062 150.445312 395.488281 149.453125 396.527344 C 149.054688 396.953125 148.695312 397.421875 148.289062 397.835938 C 147.664062 398.480469 147.734375 399.1875 148.046875 399.921875 C 148.300781 400.519531 148.664062 400.910156 149.238281 401.125 C 150.144531 401.457031 151.253906 401.253906 151.617188 401.171875 Z M 150.769531 402.425781 C 148.261719 402.757812 147.121094 401.578125 146.628906 399.371094 C 146.253906 397.6875 147.191406 396.457031 148.332031 395.410156 C 150.476562 393.445312 154.285156 394.277344 155.285156 396.847656 C 156.230469 399.269531 154.8125 401.96875 152.222656 402.371094 C 151.746094 402.445312 151.253906 402.414062 150.769531 402.425781 " fill-opacity="1" fill-rule="nonzero"/><path fill="#ff8dbe" d="M 6.253906 319.804688 C 6.636719 319.675781 7.011719 319.535156 7.355469 319.351562 C 8.84375 318.539062 8.96875 317.269531 7.710938 316.097656 C 7.214844 315.625 6.609375 315.261719 6.035156 314.878906 C 5.429688 314.472656 4.796875 314.65625 4.179688 314.867188 C 4.0625 314.90625 3.890625 315.109375 3.898438 315.117188 C 4.605469 315.984375 3.554688 316.175781 3.292969 316.640625 C 2.800781 317.53125 2.882812 318.394531 3.285156 319.261719 C 3.472656 319.652344 3.734375 319.855469 4.050781 319.980469 C 4.613281 320.191406 5.628906 320.007812 6.253906 319.804688 Z M 8.03125 314.472656 C 9.050781 315.25 9.773438 316.371094 9.863281 317.519531 C 9.925781 318.277344 9.734375 318.90625 9.210938 319.441406 C 7.871094 320.792969 6.207031 321.359375 4.359375 321.277344 C 2.78125 321.214844 1.691406 319.808594 1.75 318.125 C 1.761719 317.75 1.964844 317.339844 1.875 317.011719 C 1.679688 316.320312 1.335938 315.59375 1.945312 315.050781 C 2.617188 314.457031 3.433594 314.011719 4.21875 313.566406 C 4.339844 313.5 4.472656 313.476562 4.605469 313.457031 C 4.835938 313.429688 6.601562 313.386719 8.03125 314.472656 " fill-opacity="1" fill-rule="nonzero"/><path fill="#ff8dbe" d="M 234.558594 91.207031 C 234.535156 89.582031 232.734375 87.890625 231.117188 87.992188 C 230.980469 88.007812 230.847656 88.113281 230.714844 88.183594 C 230.414062 88.34375 230.128906 88.582031 229.808594 88.652344 C 228.871094 88.867188 228.246094 89.371094 228.066406 90.335938 C 227.875 91.347656 227.984375 92.324219 228.945312 92.90625 C 229.675781 93.34375 230.457031 93.761719 231.273438 93.957031 C 233.0625 94.390625 234.585938 93.058594 234.558594 91.207031 Z M 226.976562 91.207031 C 226.886719 89.117188 228.09375 87.382812 229.972656 86.820312 C 230.214844 86.742188 230.507812 86.757812 230.765625 86.808594 C 231.394531 86.921875 232.015625 87.125 232.652344 87.222656 C 234.121094 87.4375 234.949219 88.222656 235.414062 89.664062 C 236.035156 91.566406 235.847656 92.988281 234.335938 94.328125 C 233.890625 94.722656 233.21875 94.992188 232.621094 95.066406 C 231.117188 95.265625 229.730469 94.734375 228.488281 93.964844 C 227.480469 93.332031 226.917969 92.351562 226.976562 91.207031 " fill-opacity="1" fill-rule="nonzero"/><path fill="#ff8dbe" d="M 106.136719 342.722656 C 106.148438 342.785156 106.164062 342.855469 106.175781 342.933594 C 106.488281 345.304688 110.296875 345.554688 111.808594 344.304688 C 112.746094 343.519531 113.027344 342.027344 112.183594 341.121094 C 111.375 340.246094 110.53125 339.15625 109.019531 339.953125 C 108.714844 340.113281 108.265625 340.003906 107.902344 340.09375 C 107.335938 340.234375 106.863281 340.546875 106.546875 340.96875 C 105.988281 341.6875 106.105469 342.609375 106.136719 342.722656 Z M 104.996094 342.621094 C 104.925781 340.941406 105.492188 339.839844 106.8125 339.238281 C 107.640625 338.863281 108.527344 338.613281 109.402344 338.339844 C 109.601562 338.277344 109.835938 338.28125 110.046875 338.308594 C 111.636719 338.46875 113.671875 340.769531 113.796875 342.519531 C 113.925781 344.222656 112.507812 345.886719 110.601562 346.207031 C 109.257812 346.429688 108.019531 346.222656 106.824219 345.707031 C 105.402344 345.09375 105.085938 343.78125 104.996094 342.621094 " fill-opacity="1" fill-rule="nonzero"/><path fill="#ff8dbe" d="M 213.492188 238.46875 C 213.847656 238.320312 214.066406 238.097656 214.296875 237.671875 C 215.597656 235.261719 214.242188 232.722656 211.507812 232.242188 C 210.550781 232.078125 209.886719 232.601562 209.550781 233.519531 C 209.160156 234.566406 209.414062 235.515625 209.90625 236.453125 C 210.035156 236.707031 210.175781 237.230469 210.097656 237.28125 C 209.421875 237.691406 209.773438 237.933594 210.21875 238.085938 C 210.570312 238.207031 210.925781 238.308594 211.285156 238.40625 C 211.878906 238.570312 212.898438 238.710938 213.492188 238.46875 Z M 210.742188 239.519531 C 210.210938 239.394531 209.703125 239.164062 209.222656 238.8125 C 208.675781 238.40625 208.304688 237.933594 208.523438 237.160156 C 208.617188 236.828125 208.507812 236.441406 208.464844 236.082031 C 208.425781 235.816406 208.3125 235.558594 208.285156 235.296875 C 208.140625 233.816406 208.300781 232.425781 209.757812 231.636719 C 211.175781 230.859375 212.503906 231.171875 213.878906 231.980469 C 215.789062 233.105469 216.121094 234.789062 215.8125 236.714844 C 215.671875 237.601562 215.40625 238.4375 214.800781 238.984375 C 213.753906 239.929688 211.648438 239.742188 210.742188 239.519531 " fill-opacity="1" fill-rule="nonzero"/><path fill="#ff8dbe" d="M 138.929688 41.1875 C 139.324219 40.835938 139.636719 40.34375 139.914062 39.847656 C 140.429688 38.933594 140.070312 38.097656 139.058594 37.84375 C 138.394531 37.671875 137.636719 37.53125 136.996094 37.691406 C 136.226562 37.894531 135.523438 38.417969 134.820312 38.84375 C 134.695312 38.921875 134.664062 39.226562 134.65625 39.433594 C 134.636719 40.222656 134.917969 40.84375 135.441406 41.238281 C 136.347656 41.921875 138.234375 41.800781 138.929688 41.1875 Z M 137.546875 42.773438 C 134.527344 42.859375 132.953125 40.722656 133.839844 38.027344 C 134.214844 36.886719 134.40625 36.875 135.714844 36.792969 C 136.730469 36.726562 137.71875 36.585938 138.746094 36.757812 C 139.867188 36.9375 140.609375 37.539062 141.027344 38.570312 C 141.449219 39.605469 141.066406 40.453125 140.410156 41.25 C 139.617188 42.21875 138.667969 42.851562 137.546875 42.773438 " fill-opacity="1" fill-rule="nonzero"/><path fill="#ff8dbe" d="M 232.15625 321.460938 C 232.269531 321.722656 232.359375 321.980469 232.296875 322.195312 C 232.15625 322.699219 232.378906 322.746094 232.660156 322.816406 C 233.4375 323.011719 234.867188 322.628906 235.011719 322.214844 C 235.179688 321.75 234.597656 320.742188 233.832031 320.257812 C 233.527344 320.058594 233.167969 319.894531 232.8125 319.828125 C 232.5 319.773438 232.246094 319.847656 232.074219 320.027344 C 231.765625 320.339844 231.988281 321.078125 232.15625 321.460938 Z M 231.292969 318.929688 C 231.773438 318.535156 232.4375 318.355469 233.15625 318.523438 C 234.757812 318.871094 236.046875 320.277344 236.257812 321.875 C 236.378906 322.800781 236.148438 323.425781 235.253906 323.636719 C 234.234375 323.875 233.144531 323.867188 232.085938 323.855469 C 231.785156 323.855469 231.339844 323.511719 231.230469 323.222656 C 231.078125 322.820312 230.960938 322.398438 230.855469 321.960938 C 230.683594 321.25 230.453125 319.617188 231.292969 318.929688 " fill-opacity="1" fill-rule="nonzero"/><path fill="#ff8dbe" d="M 257.621094 121.144531 C 257.371094 121.296875 257.109375 121.476562 256.855469 121.667969 C 256.265625 122.089844 256.183594 123.097656 256.648438 123.652344 C 257.117188 124.210938 258.632812 124.640625 259.339844 124.417969 C 260.203125 124.136719 261.230469 122.6875 261.101562 121.914062 C 261.03125 121.480469 260.617188 121.09375 259.984375 120.863281 C 259.148438 120.558594 258.046875 120.863281 257.621094 121.144531 Z M 259.339844 119.707031 C 259.566406 119.753906 259.808594 119.816406 260.042969 119.898438 C 261.632812 120.460938 262.371094 121.527344 262.078125 122.75 C 261.703125 124.347656 260.171875 125.589844 258.703125 125.460938 C 258.277344 125.429688 257.847656 125.320312 257.441406 125.195312 C 255.75 124.652344 255.046875 123.535156 255.335938 121.878906 C 255.449219 121.1875 255.898438 120.582031 256.566406 120.160156 C 257.582031 119.523438 258.953125 119.632812 259.339844 119.707031 " fill-opacity="1" fill-rule="nonzero"/><path fill="#ff8dbe" d="M 357.652344 212.390625 C 358.492188 212.371094 359.460938 211.398438 359.550781 210.476562 C 359.617188 209.828125 358.921875 209.035156 358.078125 209.054688 C 357.617188 209.0625 357.167969 209.46875 356.714844 209.707031 C 356 210.078125 355.628906 210.652344 355.933594 211.433594 C 356.214844 212.1875 356.898438 212.386719 357.652344 212.390625 Z M 357.9375 213.4375 C 356.253906 213.515625 354.652344 212.339844 354.613281 211 C 354.578125 209.535156 356.070312 207.996094 357.617188 207.902344 C 358.933594 207.820312 360.566406 209.144531 360.628906 210.351562 C 360.707031 211.84375 359.367188 213.378906 357.9375 213.4375 " fill-opacity="1" fill-rule="nonzero"/><path fill="#ff8dbe" d="M 189.417969 231.898438 C 189.417969 231.292969 188.589844 230.578125 187.855469 230.546875 C 187.101562 230.515625 186.472656 231.386719 186.4375 232.511719 C 186.414062 233.207031 186.921875 233.800781 187.5625 233.8125 C 188.332031 233.832031 189.425781 232.707031 189.417969 231.898438 Z M 187.675781 229.507812 C 189.355469 229.492188 190.554688 230.488281 190.558594 231.886719 C 190.558594 233.453125 189.144531 234.832031 187.574219 234.910156 C 186.03125 234.984375 185.238281 233.683594 185.082031 231.917969 C 184.953125 230.566406 186.160156 229.523438 187.675781 229.507812 " fill-opacity="1" fill-rule="nonzero"/><path fill="#ff8dbe" d="M 236.277344 357.296875 C 235.613281 357.285156 234.699219 358.199219 234.644531 358.9375 C 234.578125 359.703125 235.253906 360.46875 235.988281 360.457031 C 236.734375 360.441406 237.703125 359.308594 237.757812 358.394531 C 237.792969 357.75 237.207031 357.316406 236.277344 357.296875 Z M 237.199219 356.398438 C 237.589844 356.539062 237.972656 356.691406 238.34375 356.882812 C 238.65625 357.050781 238.929688 357.539062 238.988281 357.921875 C 239.191406 359.269531 237.8125 361.152344 236.472656 361.484375 C 235.460938 361.730469 234.699219 361.292969 234.050781 360.582031 C 233.535156 360.023438 233.335938 359.308594 233.609375 358.636719 C 233.929688 357.867188 234.394531 357.144531 234.890625 356.480469 C 235 356.335938 235.199219 356.257812 235.433594 356.1875 C 235.765625 356.085938 236.558594 356.167969 237.199219 356.398438 " fill-opacity="1" fill-rule="nonzero"/><path fill="#ff8dbe" d="M 238.363281 205.003906 C 237.1875 205.023438 236.199219 204.082031 236.199219 202.933594 C 236.199219 201.976562 236.972656 201.042969 237.800781 201.011719 C 238.871094 200.960938 240.269531 202.390625 240.277344 203.558594 C 240.277344 204.480469 239.617188 204.980469 238.363281 205.003906 " fill-opacity="1" fill-rule="nonzero"/><path fill="#ff8dbe" d="M 14.863281 205.152344 C 14.8125 204.144531 15.691406 203.109375 16.667969 203.015625 C 17.617188 202.917969 18.792969 203.769531 18.816406 204.566406 C 18.855469 205.535156 17.585938 207.148438 16.757812 207.195312 C 15.839844 207.238281 14.914062 206.25 14.863281 205.152344 " fill-opacity="1" fill-rule="nonzero"/><path fill="#ff8dbe" d="M 140.894531 335.085938 C 140.925781 336.25 140.167969 337.320312 139.273438 337.378906 C 138.292969 337.441406 137.425781 336.496094 137.398438 335.335938 C 137.375 334.21875 138.082031 333.210938 138.917969 333.160156 C 139.96875 333.097656 140.863281 333.972656 140.894531 335.085938 " fill-opacity="1" fill-rule="nonzero"/><path fill="#ff8dbe" d="M 163.015625 237.625 C 162.875 237.660156 162.734375 237.703125 162.621094 237.792969 C 162.210938 238.117188 161.796875 238.5 161.535156 238.945312 C 161.222656 239.484375 161.84375 239.636719 162.125 239.921875 C 162.523438 240.335938 162.332031 240.59375 161.855469 240.707031 C 161.484375 240.789062 161.070312 240.765625 160.75 240.925781 C 160.34375 241.128906 159.761719 241.421875 159.691406 241.765625 C 159.464844 242.875 159.425781 244.023438 160.101562 245.050781 C 160.90625 246.277344 161.894531 246.613281 163.304688 246.179688 C 165.828125 245.390625 166.835938 243.628906 166.851562 241.484375 C 166.863281 240.246094 166.621094 239.308594 166.105469 238.652344 C 165.082031 237.363281 163.253906 237.570312 163.015625 237.625 Z M 168.066406 241.140625 C 168.195312 244.695312 165.726562 247.460938 162.421875 247.53125 C 161.121094 247.558594 160.101562 247.074219 159.355469 246.050781 C 158.320312 244.625 157.777344 242.953125 158.511719 241.332031 C 159.167969 239.871094 160.230469 238.550781 161.230469 237.292969 C 162.316406 235.929688 165.011719 236.179688 166.382812 237.421875 C 167.492188 238.421875 168.023438 239.667969 168.066406 241.140625 " fill-opacity="1" fill-rule="nonzero"/><path fill="#ff8dbe" d="M 160.769531 83.484375 C 160.34375 83.527344 159.910156 83.542969 159.488281 83.617188 C 159.308594 83.648438 159.015625 83.828125 159.023438 83.925781 C 159.082031 85.027344 158.457031 84.835938 157.765625 84.65625 C 157.535156 84.601562 157.230469 84.695312 157 84.8125 C 155.902344 85.367188 155.347656 86.980469 155.75 88.351562 C 156.109375 89.542969 156.980469 90.148438 158.347656 90.054688 C 160.203125 89.914062 161.773438 89.179688 162.921875 87.660156 C 163.617188 86.738281 163.832031 85.792969 163.328125 84.652344 C 162.785156 83.433594 161.828125 83.421875 160.769531 83.484375 Z M 160.578125 82.417969 C 163.707031 82.074219 165.039062 84.441406 164.71875 86.527344 C 164.609375 87.226562 164.195312 87.9375 163.769531 88.53125 C 162.089844 90.84375 159.679688 91.40625 157.007812 91.054688 C 155.535156 90.859375 154.652344 89.824219 154.398438 88.332031 C 153.957031 85.824219 155.554688 83.4375 158.039062 82.902344 C 158.882812 82.726562 159.730469 82.578125 160.578125 82.417969 " fill-opacity="1" fill-rule="nonzero"/><path fill="#ff8dbe" d="M 154.328125 295.355469 C 154.84375 295.199219 155.355469 295.035156 155.839844 294.824219 C 156.28125 294.632812 156.703125 294.117188 156.867188 293.652344 C 157.625 291.488281 155.183594 288.613281 152.914062 288.996094 C 152.304688 289.097656 151.746094 289.5 151.195312 289.816406 C 151.042969 289.898438 150.863281 290.28125 150.910156 290.339844 C 151.515625 291.042969 151.011719 291.476562 150.601562 291.980469 C 149.941406 292.796875 150.257812 293.625 150.699219 294.382812 C 150.929688 294.78125 151.203125 295.128906 151.554688 295.390625 C 152.148438 295.820312 153.480469 295.609375 154.328125 295.355469 Z M 149.003906 292 C 148.445312 288.855469 152.746094 286.925781 155.183594 288.332031 C 156.859375 289.292969 158.078125 290.59375 158.246094 292.609375 C 158.371094 294.160156 157.65625 295.347656 156.222656 295.960938 C 155.433594 296.296875 154.589844 296.527344 153.746094 296.695312 C 151.363281 297.152344 149.59375 295.921875 149.148438 293.53125 C 149.074219 293.109375 149.066406 292.675781 149.003906 292 " fill-opacity="1" fill-rule="nonzero"/><path fill="#ff8dbe" d="M 104.582031 157.675781 C 106.289062 157.65625 107.011719 156.851562 107.707031 154.988281 C 108.375 153.203125 106.5625 151.429688 105.039062 151.347656 C 104.523438 151.320312 104 151.578125 103.476562 151.660156 C 101.699219 151.941406 100.574219 153.707031 101.070312 155.46875 C 101.5 157.003906 102.617188 157.707031 104.582031 157.675781 Z M 106.265625 150.5 C 106.890625 150.761719 107.457031 151.195312 107.992188 151.742188 C 108.632812 152.40625 108.957031 153.171875 108.925781 154.078125 C 108.867188 155.53125 108.363281 156.863281 107.417969 157.925781 C 106.964844 158.429688 106.117188 158.804688 105.433594 158.835938 C 104.375 158.878906 103.273438 158.6875 102.257812 158.375 C 100.671875 157.886719 99.855469 156.597656 99.820312 154.917969 C 99.796875 153.496094 100.390625 152.292969 101.257812 151.226562 C 101.621094 150.773438 102.074219 150.53125 102.582031 150.398438 C 103.4375 150.167969 105.179688 150.035156 106.265625 150.5 " fill-opacity="1" fill-rule="nonzero"/><path fill="#ff8dbe" d="M 350.007812 255.558594 C 350.226562 255.863281 350.527344 256.0625 350.921875 256.164062 C 352.011719 256.4375 353.121094 256.699219 354.238281 256.789062 C 355.394531 256.882812 356.210938 255.984375 356.296875 254.773438 C 356.394531 253.597656 355.992188 253.0625 354.664062 252.878906 C 353.835938 252.757812 352.945312 253.003906 352.152344 252.808594 C 351.554688 252.65625 351.011719 252.359375 350.5625 252.898438 C 350.367188 253.132812 350.214844 253.402344 350.066406 253.683594 C 349.824219 254.140625 349.652344 255.054688 350.007812 255.558594 Z M 352.273438 257.695312 C 351.667969 257.566406 351.066406 257.433594 350.488281 257.234375 C 349.1875 256.800781 348.492188 255.773438 348.523438 254.375 C 348.5625 252.941406 349.3125 251.875 350.601562 251.359375 C 351.375 251.054688 352.304688 250.945312 353.128906 251.046875 C 354.074219 251.160156 355.015625 251.527344 355.882812 251.925781 C 356.976562 252.429688 357.84375 254.445312 357.574219 255.542969 C 357.402344 256.265625 356.910156 256.878906 356.222656 257.316406 C 355.167969 258.007812 353.273438 257.898438 352.273438 257.695312 " fill-opacity="1" fill-rule="nonzero"/><path fill="#ff8dbe" d="M 289.097656 371.625 C 289.175781 372.976562 288.199219 374.285156 287.089844 374.316406 C 286.054688 374.347656 284.644531 372.785156 284.582031 371.527344 C 284.550781 370.832031 286.042969 369.519531 286.96875 369.429688 C 288.027344 369.335938 289.035156 370.367188 289.097656 371.625 " fill-opacity="1" fill-rule="nonzero"/><path fill="#ff8dbe" d="M 129.214844 268.261719 C 129.175781 267.183594 130.164062 265.890625 131.015625 265.902344 C 131.902344 265.917969 133.132812 266.980469 133.175781 267.785156 C 133.246094 268.882812 132.085938 270.296875 131.097656 270.332031 C 130.152344 270.363281 129.253906 269.375 129.214844 268.261719 " fill-opacity="1" fill-rule="nonzero"/><path fill="#ff8dbe" d="M 256.648438 292.113281 C 256.667969 293.394531 255.921875 294.417969 254.914062 294.46875 C 253.765625 294.53125 252.707031 293.410156 252.714844 292.140625 C 252.71875 291.273438 253.765625 290.21875 254.589844 290.246094 C 255.777344 290.289062 256.628906 291.0625 256.648438 292.113281 " fill-opacity="1" fill-rule="nonzero"/><path fill="#ff8dbe" d="M 223.328125 145.632812 C 223.277344 144.625 224.105469 143.808594 225.292969 143.6875 C 226.199219 143.589844 227.683594 144.683594 227.710938 145.472656 C 227.746094 146.332031 226.285156 147.496094 225.125 147.527344 C 224.167969 147.550781 223.378906 146.722656 223.328125 145.632812 " fill-opacity="1" fill-rule="nonzero"/><path fill="#ff8dbe" d="M 184.5625 265.082031 C 184.332031 265.398438 184.148438 265.667969 184.015625 265.949219 C 183.925781 266.144531 184.15625 266.523438 184.296875 266.785156 C 184.347656 266.871094 184.589844 266.929688 184.722656 266.90625 C 185.359375 266.785156 185.929688 265.6875 185.660156 265.113281 C 185.597656 264.972656 185.519531 264.839844 185.425781 264.679688 C 185.285156 264.441406 184.902344 264.628906 184.5625 265.082031 Z M 187.078125 265.515625 C 187.089844 266.625 185.910156 267.964844 184.800781 268.105469 C 184.027344 268.199219 183.339844 267.855469 182.976562 267.058594 C 182.695312 266.453125 182.273438 265.78125 183.070312 265.183594 C 183.261719 265.042969 183.371094 264.761719 183.464844 264.527344 C 183.996094 263.210938 184.542969 262.996094 185.78125 263.625 C 186.625 264.058594 187.070312 264.71875 187.078125 265.515625 " fill-opacity="1" fill-rule="nonzero"/><path fill="#ff8dbe" d="M 93.085938 227.332031 C 93.078125 226.335938 93.851562 225.703125 95.078125 225.710938 C 96.050781 225.71875 96.664062 226.273438 96.65625 227.160156 C 96.65625 228.1875 95.734375 229.230469 94.78125 229.28125 C 93.792969 229.335938 93.09375 228.53125 93.085938 227.332031 " fill-opacity="1" fill-rule="nonzero"/><path fill="#ff8dbe" d="M 122.449219 237.449219 C 122.238281 237.671875 122.152344 237.972656 122.230469 238.265625 C 122.261719 238.386719 122.363281 238.492188 122.484375 238.597656 C 122.664062 238.75 123.046875 238.597656 123.347656 238.257812 C 123.648438 237.914062 123.734375 237.511719 123.558594 237.359375 C 123.371094 237.207031 122.773438 237.097656 122.449219 237.449219 Z M 122.804688 236 C 123.882812 235.949219 125.011719 236.796875 125.039062 237.683594 C 125.074219 238.730469 123.863281 239.949219 122.722656 240.011719 C 121.71875 240.070312 120.871094 239.0625 120.859375 237.792969 C 120.847656 236.925781 121.789062 236.050781 122.804688 236 " fill-opacity="1" fill-rule="nonzero"/><path fill="#ff8dbe" d="M 172.789062 130.1875 C 172.5 130.4375 172.34375 130.761719 172.429688 131.03125 C 172.519531 131.300781 172.933594 131.644531 173.183594 131.628906 C 173.777344 131.597656 174.167969 131.132812 174.148438 130.546875 C 174.148438 130.414062 174.0625 130.277344 173.960938 130.15625 C 173.800781 129.972656 173.195312 129.84375 172.789062 130.1875 Z M 171.335938 130.871094 C 171.347656 129.84375 172.367188 128.8125 173.394531 128.792969 C 174.28125 128.773438 175.21875 129.730469 175.257812 130.691406 C 175.296875 131.667969 174.191406 132.753906 173.160156 132.753906 C 172.183594 132.746094 171.320312 131.859375 171.335938 130.871094 " fill-opacity="1" fill-rule="nonzero"/><path fill="#ff8dbe" d="M 93.398438 191.71875 C 94.207031 191.699219 94.851562 192.316406 94.871094 193.121094 C 94.890625 194.015625 94.363281 194.644531 93.578125 194.660156 C 92.746094 194.671875 91.964844 193.847656 91.949219 192.960938 C 91.9375 192.34375 92.640625 191.738281 93.398438 191.71875 " fill-opacity="1" fill-rule="nonzero"/><path fill="#ff8dbe" d="M 171.125 328.996094 C 171.269531 329.429688 171.429688 329.855469 171.671875 330.234375 C 172.96875 332.300781 176.078125 332.503906 178.082031 330.839844 C 179.421875 329.722656 180.390625 326.699219 179.339844 324.585938 C 178.796875 323.503906 178.152344 322.566406 176.964844 322.355469 C 175.570312 322.105469 173.976562 322.175781 172.941406 323.082031 C 172.289062 323.664062 171.71875 324.34375 171.316406 325.148438 C 170.65625 326.457031 170.886719 328.28125 171.125 328.996094 Z M 175.429688 321.234375 C 178.535156 320.695312 180.804688 323.210938 180.953125 326.375 C 181.066406 328.785156 180.550781 330.890625 178.28125 332.191406 C 176.324219 333.300781 174.222656 333.550781 172.277344 332.445312 C 170.148438 331.242188 169.492188 329.105469 169.597656 326.75 C 169.65625 325.367188 170.242188 324.136719 170.964844 322.992188 C 171.578125 322.023438 172.550781 321.558594 173.664062 321.386719 C 174.191406 321.308594 174.734375 321.289062 175.429688 321.234375 " fill-opacity="1" fill-rule="nonzero"/><path fill="#ff8dbe" d="M 352.910156 177.519531 C 355.257812 177.460938 356.769531 176.058594 357.234375 173.527344 C 357.566406 171.726562 356.867188 169.726562 354.804688 169.234375 C 354.074219 169.0625 353.359375 168.792969 352.617188 168.671875 C 351.277344 168.449219 349.925781 169.097656 349.300781 170.183594 C 349.070312 170.585938 348.875 170.949219 349.539062 171.179688 C 349.972656 171.324219 349.855469 171.625 349.640625 171.933594 C 349.347656 172.359375 348.898438 172.792969 348.847656 173.257812 C 348.605469 175.527344 350.613281 177.578125 352.910156 177.519531 Z M 347.65625 172.136719 C 347.675781 171.855469 347.6875 171.65625 347.695312 171.460938 C 347.828125 168.960938 349.59375 167.320312 352.292969 167.59375 C 353.765625 167.746094 355.246094 168.296875 356.597656 168.925781 C 358.5625 169.839844 358.746094 172.105469 358.410156 173.878906 C 357.796875 177.136719 355.378906 178.902344 352.074219 178.554688 C 350.164062 178.347656 348.957031 177.097656 348.25 175.433594 C 348.0625 175.011719 347.949219 174.566406 347.859375 174.144531 C 347.710938 173.410156 347.636719 172.511719 347.65625 172.136719 " fill-opacity="1" fill-rule="nonzero"/><path fill="#ff8dbe" d="M 304.664062 308.386719 C 304.164062 307.660156 303.417969 307.136719 302.40625 306.773438 C 301.1875 306.332031 299.730469 306.644531 299.015625 307.609375 C 298.757812 307.957031 298.507812 308.550781 298.628906 308.910156 C 298.871094 309.667969 299 310.222656 298.175781 310.695312 C 297.992188 310.804688 297.953125 311.273438 297.957031 311.582031 C 297.984375 312.804688 298.539062 313.761719 299.585938 314.394531 C 300.949219 315.222656 302.410156 315.230469 303.757812 314.476562 C 304.414062 314.109375 304.878906 313.617188 305.152344 313.046875 C 305.636719 312.035156 305.542969 309.675781 304.664062 308.386719 Z M 299.085938 315.441406 C 298.085938 314.867188 297.351562 313.902344 296.898438 312.601562 C 296.542969 311.582031 296.320312 310.511719 297.160156 309.546875 C 297.3125 309.375 297.359375 309.054688 297.347656 308.808594 C 297.25 306.753906 299.265625 305.222656 301.453125 305.417969 C 306.539062 305.890625 307.707031 310.898438 305.964844 314.195312 C 305.574219 314.925781 305.027344 315.402344 304.386719 315.683594 C 303.277344 316.179688 300.652344 316.332031 299.085938 315.441406 " fill-opacity="1" fill-rule="nonzero"/><g clip-path="url(#2a36f0278c)"><path fill="#ff8dbe" d="M 266.03125 417.878906 C 265.769531 417.441406 265.371094 417.085938 264.832031 416.800781 C 263.597656 416.148438 262.269531 415.984375 260.929688 416.027344 C 260.191406 416.046875 259.417969 416.25 259.460938 417.308594 C 259.46875 417.46875 259.273438 417.71875 259.105469 417.808594 C 257.535156 418.6875 257.882812 420.03125 258.226562 421.351562 C 258.558594 422.621094 259.246094 423.757812 260.605469 423.9375 C 262.421875 424.167969 264.152344 423.6875 265.371094 422.175781 C 265.6875 421.78125 265.996094 421.367188 266.207031 420.917969 C 266.554688 420.152344 266.492188 418.648438 266.03125 417.878906 Z M 263.199219 415.183594 C 263.859375 415.34375 264.496094 415.523438 265.109375 415.792969 C 267.660156 416.902344 268.367188 419.441406 267.023438 421.851562 C 265.726562 424.179688 263.703125 425.117188 261.148438 425.125 C 260.929688 425.128906 260.714844 425.117188 260.503906 425.078125 C 258.492188 424.707031 256.847656 422.535156 256.667969 420.027344 C 256.496094 417.730469 257.726562 415.746094 259.769531 415.082031 C 260 415.007812 260.234375 414.96875 260.476562 414.941406 C 260.878906 414.898438 261.210938 414.835938 261.230469 414.796875 C 261.242188 414.75 262.121094 414.921875 263.199219 415.183594 " fill-opacity="1" fill-rule="nonzero"/></g><path fill="#ff8dbe" d="M 124.546875 196.835938 C 124.859375 196.851562 124.863281 197.191406 124.789062 197.945312 C 124.640625 199.328125 125.375 200.535156 126.664062 200.679688 C 129.304688 200.992188 131.167969 199.308594 131.199219 196.679688 C 131.207031 196.121094 130.816406 195.375 130.371094 195.015625 C 129.070312 193.988281 127.109375 194.046875 125.535156 194.894531 C 123.960938 195.75 123.851562 196.789062 124.546875 196.835938 Z M 128.851562 193.445312 C 129.375 193.554688 129.890625 193.683594 130.394531 193.835938 C 131.535156 194.199219 132.164062 195.105469 132.285156 196.253906 C 132.488281 198.140625 131.886719 199.820312 130.351562 200.960938 C 128.8125 202.109375 127.054688 202.238281 125.304688 201.382812 C 124.882812 201.179688 124.464844 200.839844 124.21875 200.449219 C 123.710938 199.621094 123.46875 198.695312 122.714844 197.9375 C 122.011719 197.230469 122.453125 195.792969 123.335938 194.875 C 123.882812 194.296875 124.457031 193.898438 125.144531 193.621094 C 126.28125 193.160156 127.996094 193.253906 128.851562 193.445312 " fill-opacity="1" fill-rule="nonzero"/><path fill="#ff8dbe" d="M 166.625 204.164062 C 166.550781 203.960938 166.460938 203.742188 166.359375 203.53125 C 165.722656 202.238281 164.605469 201.632812 163.359375 201.878906 C 161.167969 202.3125 159.917969 203.351562 159.796875 204.847656 C 159.648438 206.65625 161.046875 208.375 162.742188 208.460938 C 163.808594 208.519531 164.835938 208.148438 165.59375 207.507812 C 166.886719 206.402344 166.761719 204.519531 166.625 204.164062 Z M 160.214844 208.546875 C 159.011719 207.449219 158.226562 205.695312 158.4375 204.234375 C 158.488281 203.925781 158.609375 203.609375 158.78125 203.347656 C 160.039062 201.453125 162.003906 200.761719 164.082031 200.789062 C 166.976562 200.820312 168.355469 204.175781 167.910156 206.152344 C 167.667969 207.21875 167.054688 208.078125 166.160156 208.667969 C 164.707031 209.617188 161.542969 209.75 160.214844 208.546875 " fill-opacity="1" fill-rule="nonzero"/><path fill="#ff8dbe" d="M 86.535156 118.566406 C 86.617188 120.523438 87.675781 121.648438 89.164062 121.476562 C 90.976562 121.273438 92.550781 119.191406 92.269531 117.386719 C 92.105469 116.347656 91.464844 115.5625 90.566406 115.15625 C 89.679688 114.746094 88.914062 115.226562 88.320312 115.972656 C 88.199219 116.128906 88.003906 116.269531 87.8125 116.347656 C 86.699219 116.761719 86.4375 117.628906 86.535156 118.566406 Z M 93.410156 117.859375 C 93.5 120.851562 91.101562 122.976562 88.175781 122.496094 C 86.3125 122.191406 84.914062 119.90625 85.277344 117.730469 C 85.429688 116.800781 85.78125 115.976562 86.71875 115.53125 C 87.050781 115.371094 87.34375 115.121094 87.652344 114.90625 C 88.699219 114.152344 89.820312 113.597656 91.082031 114.28125 C 92.492188 115.035156 93.441406 116.144531 93.410156 117.859375 " fill-opacity="1" fill-rule="nonzero"/><path fill="#ff8dbe" d="M 245.339844 257.835938 C 245.074219 257.921875 244.828125 258.03125 244.714844 258.210938 C 244.25 258.964844 243.847656 259.824219 243.71875 260.691406 C 243.585938 261.609375 245.371094 262.757812 246.601562 262.707031 C 247.605469 262.667969 248.28125 261.585938 248.21875 260.128906 C 248.183594 259.347656 248.019531 258.757812 247.707031 258.351562 C 247.074219 257.527344 245.730469 257.707031 245.339844 257.835938 Z M 247.035156 263.863281 C 244.734375 263.976562 242.949219 262.738281 242.515625 260.953125 C 242.265625 259.925781 242.667969 259.050781 243.089844 258.179688 C 243.25 257.847656 243.515625 257.566406 243.738281 257.265625 C 244.867188 255.722656 246.445312 255.582031 247.847656 256.898438 C 249.269531 258.230469 249.714844 260.550781 249.027344 262.371094 C 248.613281 263.460938 247.828125 263.796875 247.035156 263.863281 " fill-opacity="1" fill-rule="nonzero"/><path fill="#ff8dbe" d="M 213.605469 181.769531 C 213.792969 182.066406 214.050781 182.304688 214.402344 182.464844 C 214.976562 182.730469 215.609375 182.933594 216.242188 183.035156 C 217.265625 183.203125 217.949219 182.78125 218.464844 181.8125 C 218.976562 180.855469 218.882812 180.121094 218.140625 179.292969 C 217.074219 178.09375 215.980469 178.003906 214.625 178.992188 C 214.460938 179.113281 214.28125 179.25 214.085938 179.316406 C 213.738281 179.445312 213.566406 179.65625 213.464844 179.898438 C 213.292969 180.34375 213.300781 181.265625 213.605469 181.769531 Z M 212.183594 180.726562 C 212.140625 178.851562 213.757812 177.035156 215.527344 176.984375 C 217.441406 176.917969 219.824219 179.070312 219.855469 180.882812 C 219.890625 182.636719 218.511719 184.070312 216.726562 184.128906 C 214.226562 184.210938 212.234375 182.71875 212.183594 180.726562 " fill-opacity="1" fill-rule="nonzero"/><path fill="#ff8dbe" d="M 287.320312 166.0625 C 286.847656 166.132812 286.375 166.28125 285.910156 166.253906 C 284.964844 166.183594 284.921875 166.867188 284.75 167.480469 C 284.550781 168.199219 284.753906 168.769531 285.40625 169.117188 C 286.152344 169.519531 287.878906 169.226562 288.441406 168.59375 C 288.84375 168.15625 289.226562 167.625 288.863281 167.007812 C 288.539062 166.441406 288.058594 165.988281 287.320312 166.0625 Z M 289.710938 168.992188 C 289.449219 169.425781 289.066406 169.769531 288.582031 169.984375 C 287.785156 170.34375 286.796875 170.417969 285.914062 170.363281 C 284.820312 170.285156 284 169.601562 283.6875 168.507812 C 283.359375 167.332031 283.726562 166.28125 284.4375 165.328125 C 284.5 165.246094 284.59375 165.183594 284.683594 165.125 C 286.152344 164.109375 289.558594 165.324219 290.015625 167.011719 C 290.035156 167.097656 290.054688 167.179688 290.0625 167.273438 C 290.082031 167.414062 290.144531 168.269531 289.710938 168.992188 " fill-opacity="1" fill-rule="nonzero"/><path fill="#ff8dbe" d="M 28.054688 257.050781 C 28.488281 256.738281 28.71875 256.277344 28.667969 255.753906 C 28.617188 255.308594 28.253906 254.746094 27.863281 254.515625 C 27.5625 254.339844 26.855469 254.445312 26.585938 254.703125 C 26.101562 255.160156 25.785156 255.820312 25.453125 256.425781 C 25.382812 256.546875 25.492188 256.890625 25.625 256.964844 C 25.785156 257.074219 25.957031 257.164062 26.117188 257.246094 C 26.394531 257.382812 27.378906 257.539062 28.054688 257.050781 Z M 29.820312 255.765625 C 29.851562 256.949219 29.253906 257.921875 28.246094 258.34375 C 27.007812 258.855469 25.285156 258.503906 24.519531 257.554688 C 24.253906 257.214844 23.941406 256.820312 23.902344 256.429688 C 23.851562 255.890625 23.863281 254.976562 24.15625 254.824219 C 25.34375 254.210938 26.402344 253.109375 27.972656 253.507812 C 29.253906 253.839844 29.789062 254.429688 29.820312 255.765625 " fill-opacity="1" fill-rule="nonzero"/><path fill="#ff8dbe" d="M 39.5 157.617188 C 39.464844 156.851562 38.890625 156.316406 38.125 156.328125 C 37.359375 156.347656 36.449219 157.402344 36.488281 158.222656 C 36.519531 158.96875 37.15625 159.574219 37.847656 159.511719 C 38.777344 159.417969 39.53125 158.550781 39.5 157.617188 Z M 37.617188 160.597656 C 36.1875 160.617188 35.351562 159.683594 35.339844 158.070312 C 35.328125 156.535156 36.613281 155.359375 38.3125 155.367188 C 39.742188 155.367188 40.609375 156.257812 40.601562 157.699219 C 40.59375 159.460938 39.453125 160.566406 37.617188 160.597656 " fill-opacity="1" fill-rule="nonzero"/><path fill="#ff8dbe" d="M 86.71875 305.222656 C 86.082031 305.285156 85.730469 305.839844 85.75 306.675781 C 85.761719 307.117188 85.910156 307.417969 86.386719 307.417969 C 87.078125 307.421875 87.695312 306.675781 87.59375 305.976562 C 87.523438 305.484375 87.253906 305.191406 86.71875 305.222656 Z M 86.726562 304.195312 C 88.003906 304.125 88.890625 304.949219 88.914062 306.21875 C 88.945312 307.460938 87.742188 308.648438 86.414062 308.679688 C 85.316406 308.703125 84.214844 307.695312 84.117188 306.585938 C 84.035156 305.523438 85.40625 304.257812 86.726562 304.195312 " fill-opacity="1" fill-rule="nonzero"/><path fill="#ff8dbe" d="M 122.84375 309.296875 C 123.027344 309.191406 123.21875 309.054688 123.386719 308.894531 C 123.964844 308.328125 123.703125 307.625 122.917969 307.46875 C 122.191406 307.3125 121.804688 307.574219 121.382812 308.5 C 121.203125 308.882812 121.191406 309.191406 121.371094 309.382812 C 121.71875 309.761719 122.515625 309.488281 122.84375 309.296875 Z M 123.089844 306.511719 C 123.378906 306.585938 123.652344 306.675781 123.90625 306.804688 C 124.75 307.226562 125.042969 308.136719 124.722656 309.011719 C 124.207031 310.441406 122.117188 311.207031 120.800781 310.441406 C 119.179688 309.503906 119.128906 307.875 120.710938 306.90625 C 120.941406 306.765625 121.195312 306.664062 121.472656 306.566406 C 121.898438 306.414062 122.625 306.390625 123.089844 306.511719 " fill-opacity="1" fill-rule="nonzero"/><path fill="#ff8dbe" d="M 286.363281 205.109375 C 287.726562 205.039062 288.824219 205.769531 288.902344 206.804688 C 288.972656 207.851562 287.804688 208.929688 286.535156 208.992188 C 285.601562 209.03125 284.832031 208.289062 284.75 207.28125 C 284.660156 206.097656 285.355469 205.160156 286.363281 205.109375 " fill-opacity="1" fill-rule="nonzero"/><path fill="#ff8dbe" d="M 151.054688 222.949219 C 151.113281 224.269531 150.113281 225.613281 149.039062 225.660156 C 148.179688 225.699219 147.222656 224.792969 147.222656 223.945312 C 147.222656 223.042969 148.605469 221.578125 149.511719 221.511719 C 150.425781 221.449219 151.019531 222 151.054688 222.949219 " fill-opacity="1" fill-rule="nonzero"/><path fill="#ff8dbe" d="M 187.824219 190.167969 C 187.855469 190.230469 187.894531 190.289062 187.945312 190.320312 C 188.5 190.691406 189.71875 190.25 189.773438 189.613281 C 189.792969 189.390625 189.539062 189.039062 189.316406 188.90625 C 189.128906 188.789062 188.734375 188.957031 188.378906 189.210938 C 187.917969 189.550781 187.773438 190.074219 187.824219 190.167969 Z M 188.351562 191.609375 C 187.199219 191.621094 186.414062 190.824219 186.445312 189.675781 C 186.476562 188.363281 187.363281 187.546875 188.753906 187.558594 C 189.703125 187.566406 190.878906 188.6875 190.929688 189.625 C 190.972656 190.570312 189.640625 191.597656 188.351562 191.609375 " fill-opacity="1" fill-rule="nonzero"/><path fill="#ff8dbe" d="M 73.578125 262.738281 C 74.625 262.734375 75.539062 263.414062 75.558594 264.226562 C 75.589844 265.296875 74.53125 266.574219 73.5625 266.628906 C 72.605469 266.695312 72.050781 265.902344 72.015625 264.441406 C 71.984375 263.199219 72.398438 262.746094 73.578125 262.738281 " fill-opacity="1" fill-rule="nonzero"/><path fill="#ff8dbe" d="M 106.359375 268.117188 C 107.445312 268.097656 108.039062 268.679688 108.089844 269.8125 C 108.140625 270.972656 107.625 271.496094 106.4375 271.492188 C 105.453125 271.484375 104.179688 270.433594 104.121094 269.578125 C 104.078125 268.921875 105.28125 268.136719 106.359375 268.117188 " fill-opacity="1" fill-rule="nonzero"/><path fill="#ff8dbe" d="M 185.476562 164.488281 C 185.457031 163.601562 185.761719 163.320312 186.617188 163.449219 C 186.777344 163.472656 186.9375 163.511719 187.089844 163.542969 C 188.28125 163.796875 188.792969 164.207031 188.664062 164.8125 C 188.539062 165.445312 187.464844 166.160156 186.777344 166.082031 C 185.984375 165.992188 185.488281 165.386719 185.476562 164.488281 " fill-opacity="1" fill-rule="nonzero"/><path fill="#ff8dbe" d="M 51.300781 49.351562 C 51.648438 49.53125 51.878906 49.804688 51.898438 50.109375 C 51.960938 50.84375 51.125 51.601562 50.277344 51.589844 C 49.46875 51.582031 48.398438 50.664062 48.535156 49.984375 C 48.644531 49.484375 48.9375 49.351562 49.269531 49.3125 C 49.855469 49.25 50.800781 49.097656 51.300781 49.351562 " fill-opacity="1" fill-rule="nonzero"/><path fill="#ff8dbe" d="M 207.515625 283.464844 C 207.960938 283.292969 208.402344 283.101562 208.804688 282.859375 C 210.019531 282.117188 210.246094 280.84375 209.480469 279.636719 C 208.535156 278.15625 207.113281 277.472656 205.398438 277.378906 C 205.039062 277.367188 204.644531 277.46875 204.3125 277.621094 C 203.871094 277.8125 203.519531 278.136719 204.144531 278.535156 C 204.898438 279.003906 204.632812 279.273438 204.0625 279.6875 C 203.222656 280.304688 203.074219 281.007812 203.40625 281.953125 C 203.65625 282.648438 203.972656 283.125 204.433594 283.445312 C 205.269531 284.023438 206.773438 283.75 207.515625 283.464844 Z M 202.097656 280.875 C 202.085938 280.394531 202.078125 280.230469 202.074219 280.070312 C 201.914062 277.085938 203.851562 275.578125 206.980469 276.511719 C 207.929688 276.792969 208.878906 277.359375 209.605469 278.035156 C 211.964844 280.242188 211.375 283.316406 208.375 284.460938 C 206.441406 285.199219 204.34375 285.15625 203.125 283.699219 C 202.339844 282.761719 202.058594 281.730469 202.097656 280.875 " fill-opacity="1" fill-rule="nonzero"/><path fill="#ff8dbe" d="M 215.40625 388.816406 C 215.265625 388.800781 215.125 388.796875 214.988281 388.816406 C 214.675781 388.859375 214.378906 389.019531 214.066406 389.082031 C 212.765625 389.351562 212.445312 391.539062 213.339844 392.292969 C 213.847656 392.726562 214.542969 393.199219 215.148438 393.191406 C 216.367188 393.171875 217.613281 392.957031 218.785156 392.605469 C 219.804688 392.296875 220.425781 390.941406 220.226562 389.976562 C 220.082031 389.28125 219.410156 388.515625 218.957031 388.746094 C 218.429688 389.011719 217.910156 388.992188 217.402344 388.929688 C 216.527344 388.820312 215.632812 388.839844 215.40625 388.816406 Z M 213.433594 393.804688 C 212.625 393.320312 212.0625 392.554688 211.769531 391.488281 C 211.398438 390.15625 211.863281 388.675781 213.113281 388.203125 C 214.851562 387.535156 216.660156 386.90625 218.59375 387.355469 C 220.769531 387.863281 221.816406 389.894531 221.03125 391.980469 C 220.679688 392.917969 220.015625 393.511719 219.085938 393.765625 C 218.621094 393.894531 218.148438 394 217.675781 394.101562 C 216.890625 394.269531 214.824219 394.625 213.433594 393.804688 " fill-opacity="1" fill-rule="nonzero"/><path fill="#ff8dbe" d="M 37.394531 119.683594 C 37.738281 120.25 38.214844 120.628906 38.648438 120.582031 C 39.492188 120.488281 40.359375 120.300781 41.132812 119.953125 C 42 119.5625 42.265625 118.59375 41.910156 117.566406 C 41.660156 116.859375 41.394531 116.042969 40.316406 116.527344 C 40.230469 116.5625 40.027344 116.546875 40.027344 116.53125 C 39.863281 115.410156 39.160156 116.035156 38.757812 116.226562 C 38.191406 116.492188 37.65625 116.882812 37.203125 117.328125 C 37.101562 117.433594 37.035156 117.570312 36.996094 117.71875 C 36.925781 117.953125 36.921875 118.917969 37.394531 119.683594 Z M 42.546875 115.644531 C 42.585938 115.867188 42.636719 116.097656 42.699219 116.320312 C 42.769531 116.578125 42.960938 116.792969 43.0625 117.042969 C 43.898438 119.039062 43.148438 120.78125 41.066406 121.367188 C 40.15625 121.628906 39.140625 121.707031 38.191406 121.65625 C 36.882812 121.589844 35.421875 119.574219 35.613281 118.273438 C 35.9375 115.996094 37.800781 114.632812 40.226562 114.855469 C 40.59375 114.894531 40.964844 114.910156 41.324219 114.925781 C 41.929688 114.949219 42.476562 115.269531 42.546875 115.644531 " fill-opacity="1" fill-rule="nonzero"/><path fill="#ff8dbe" d="M 296.121094 102.5 C 295.960938 102.199219 295.789062 101.914062 295.574219 101.667969 C 294.003906 99.902344 291.816406 100.917969 290.621094 102.105469 C 290.042969 102.683594 289.863281 103.53125 290.207031 104.347656 C 290.871094 105.9375 294.304688 106.796875 295.558594 105.492188 C 295.855469 105.183594 296.097656 104.878906 296.273438 104.527344 C 296.566406 103.933594 296.382812 102.976562 296.121094 102.5 Z M 294.277344 107.136719 C 292.449219 107.214844 291.210938 106.714844 290.113281 105.886719 C 288.875 104.949219 288.601562 103.742188 289.207031 102.300781 C 290.316406 99.660156 293.210938 98.804688 295.59375 100.417969 C 297.371094 101.625 297.863281 102.640625 297.46875 104.253906 C 297.035156 105.976562 295.644531 107.089844 294.277344 107.136719 " fill-opacity="1" fill-rule="nonzero"/><path fill="#ff8dbe" d="M 330.597656 146.277344 C 331.664062 146.210938 332.875 145.050781 332.992188 143.988281 C 333.078125 143.136719 332.300781 142.269531 331.199219 141.988281 C 330.613281 141.84375 328.59375 142.632812 328.320312 143.132812 C 328.269531 143.222656 328.246094 143.335938 328.21875 143.4375 C 327.832031 145.046875 328.933594 146.371094 330.597656 146.277344 Z M 326.957031 143.941406 C 326.878906 141.984375 327.585938 141.171875 329.882812 140.828125 C 332.765625 140.394531 334.765625 142.789062 333.921875 145.273438 C 333.496094 146.550781 331.566406 147.742188 330.171875 147.527344 C 328.507812 147.269531 327.019531 145.621094 326.957031 143.941406 " fill-opacity="1" fill-rule="nonzero"/><path fill="#ff8dbe" d="M 59.03125 193.511719 C 57.675781 193.484375 56.753906 195.011719 56.675781 196.121094 C 56.585938 197.339844 57.410156 197.929688 58.519531 197.441406 C 59.507812 197.007812 60.140625 196.195312 60.421875 195.175781 C 60.6875 194.230469 60.039062 193.503906 59.03125 193.511719 Z M 59.082031 192.414062 C 59.214844 192.414062 59.347656 192.421875 59.484375 192.4375 C 60.878906 192.644531 61.65625 193.605469 61.570312 195.015625 C 61.464844 196.714844 60.320312 198.261719 58.839844 198.644531 C 57.730469 198.925781 56.683594 198.84375 55.910156 197.855469 C 55.175781 196.921875 55.054688 195.8125 55.574219 194.820312 C 56.03125 193.9375 56.753906 193.171875 57.46875 192.464844 C 57.582031 192.34375 57.8125 192.335938 58.058594 192.355469 C 58.398438 192.375 58.679688 192.394531 58.679688 192.402344 C 58.679688 192.40625 58.859375 192.414062 59.082031 192.414062 " fill-opacity="1" fill-rule="nonzero"/><path fill="#ff8dbe" d="M 248.632812 166.824219 C 248.863281 166.808594 249 166.804688 249.136719 166.777344 C 249.945312 166.613281 250.519531 165.898438 250.660156 164.910156 C 250.808594 163.886719 250.527344 163.53125 249.601562 162.988281 C 248.269531 162.199219 247.355469 163.035156 246.40625 163.695312 C 245.5625 164.289062 245.523438 165.609375 246.386719 166.171875 C 246.65625 166.351562 246.949219 166.476562 247.226562 166.574219 C 247.71875 166.746094 248.351562 166.839844 248.632812 166.824219 Z M 248.59375 167.847656 C 247.351562 167.867188 246.1875 167.515625 245.296875 166.535156 C 244.152344 165.285156 244.402344 163.570312 245.835938 162.683594 C 246.015625 162.566406 246.226562 162.496094 246.398438 162.375 C 248.011719 161.261719 249.816406 161.453125 251.136719 162.875 C 252.070312 163.882812 252.019531 165.003906 251.503906 166.171875 C 250.953125 167.414062 249.945312 167.894531 248.59375 167.847656 " fill-opacity="1" fill-rule="nonzero"/><path fill="#ff8dbe" d="M 147.09375 185.921875 C 147.988281 185.851562 149.230469 186.769531 149.246094 187.515625 C 149.261719 188.363281 148.179688 189.550781 147.3125 189.640625 C 146.398438 189.722656 145.347656 188.613281 145.277344 187.484375 C 145.246094 186.933594 146.347656 185.984375 147.09375 185.921875 " fill-opacity="1" fill-rule="nonzero"/><path fill="#ff8dbe" d="M 135.675781 158.140625 C 134.375 158.210938 133.8125 157.695312 133.730469 156.34375 C 133.660156 155.328125 134.253906 154.554688 135.128906 154.519531 C 136.136719 154.464844 137.296875 155.46875 137.394531 156.464844 C 137.488281 157.464844 136.863281 158.070312 135.675781 158.140625 " fill-opacity="1" fill-rule="nonzero"/><path fill="#ff8dbe" d="M 211.871094 211.976562 C 211.898438 211.429688 212.0625 211.015625 212.847656 210.867188 C 213.816406 210.6875 214.722656 210.414062 215.550781 211.199219 C 216.15625 211.773438 216.183594 212.226562 215.621094 212.851562 C 214.9375 213.609375 213.816406 213.949219 213.007812 213.648438 C 212.273438 213.378906 211.882812 212.863281 211.871094 211.976562 " fill-opacity="1" fill-rule="nonzero"/><path fill="#ff8dbe" d="M 308.332031 250.8125 C 309.253906 250.792969 310.230469 251.589844 310.277344 252.386719 C 310.3125 253.144531 309.234375 254.300781 308.433594 254.359375 C 307.566406 254.429688 306.734375 253.578125 306.722656 252.605469 C 306.703125 251.519531 307.328125 250.832031 308.332031 250.8125 " fill-opacity="1" fill-rule="nonzero"/><path fill="#ff8dbe" d="M 90.898438 72.976562 C 90.929688 73.933594 90.367188 74.648438 89.558594 74.667969 C 88.691406 74.695312 87.703125 73.871094 87.734375 73.164062 C 87.761719 72.640625 88.972656 71.796875 89.738281 71.765625 C 90.484375 71.734375 90.867188 72.136719 90.898438 72.976562 " fill-opacity="1" fill-rule="nonzero"/><path fill="#ff8dbe" d="M 336.863281 322.214844 C 336.851562 321.488281 337.558594 320.761719 338.285156 320.746094 C 339.058594 320.730469 339.769531 321.558594 339.804688 322.507812 C 339.824219 323.285156 339.433594 323.695312 338.640625 323.714844 C 337.738281 323.738281 336.882812 323.019531 336.863281 322.214844 " fill-opacity="1" fill-rule="nonzero"/><path fill="#ff8dbe" d="M 258.640625 216.015625 C 257.765625 215.988281 257.253906 215.53125 257.261719 214.769531 C 257.269531 214.058594 258.167969 213.347656 258.976562 213.414062 C 259.621094 213.46875 260.210938 214.089844 260.203125 214.707031 C 260.183594 215.441406 259.476562 216.039062 258.640625 216.015625 " fill-opacity="1" fill-rule="nonzero"/><path fill="#ff8dbe" d="M 197.523438 82.042969 C 198.125 82.046875 198.636719 82.570312 198.636719 83.183594 C 198.636719 83.890625 197.820312 84.675781 197.039062 84.714844 C 196.414062 84.746094 195.976562 84.289062 195.960938 83.59375 C 195.949219 82.933594 196.847656 82.035156 197.523438 82.042969 " fill-opacity="1" fill-rule="nonzero"/></svg>