<svg xmlns="http://www.w3.org/2000/svg" xmlns:xlink="http://www.w3.org/1999/xlink" width="480" zoomAndPan="magnify" viewBox="0 0 360 503.999982" height="672" preserveAspectRatio="xMidYMid meet" version="1.0"><defs><clipPath id="1c75fbc452"><path d="M 327 340 L 355.328125 340 L 355.328125 367 L 327 367 Z M 327 340 " clip-rule="nonzero"/></clipPath><clipPath id="9920febe96"><path d="M 249 88.625 L 318 88.625 L 318 166 L 249 166 Z M 249 88.625 " clip-rule="nonzero"/></clipPath><clipPath id="a1d7706bd6"><path d="M 4.328125 249 L 25 249 L 25 270 L 4.328125 270 Z M 4.328125 249 " clip-rule="nonzero"/></clipPath><clipPath id="3b1499a030"><path d="M 233 364 L 280 364 L 280 415.625 L 233 415.625 Z M 233 364 " clip-rule="nonzero"/></clipPath></defs><rect x="-36" width="432" fill="#ffffff" y="-50.399998" height="604.799979" fill-opacity="1"/><rect x="-36" width="432" fill="#ffffff" y="-50.399998" height="604.799979" fill-opacity="1"/><path fill="#ff8dbe" d="M 118.15625 274.640625 C 116.828125 276.527344 115.550781 278.445312 114.265625 280.363281 C 113.441406 281.589844 112.566406 282.785156 111.761719 284.023438 C 111.238281 284.835938 110.75 285.695312 110.570312 286.644531 C 110.480469 287.121094 110.472656 287.613281 110.570312 288.085938 C 110.671875 288.558594 110.882812 289.007812 111.183594 289.382812 C 111.714844 290.03125 112.515625 290.425781 113.339844 290.570312 C 114.164062 290.714844 115.011719 290.644531 115.84375 290.542969 C 117.574219 290.332031 119.304688 290.121094 121.046875 290.019531 C 123.046875 289.898438 125.050781 289.769531 127.042969 289.523438 C 128.304688 291.289062 129.445312 293.140625 130.535156 295.015625 C 131.367188 296.457031 132.160156 297.917969 133.121094 299.277344 C 133.597656 299.957031 134.121094 300.605469 134.726562 301.175781 C 135.332031 301.746094 136.023438 302.234375 136.800781 302.53125 C 137.421875 302.765625 138.09375 302.875 138.753906 302.789062 C 139.390625 302.710938 140.003906 302.441406 140.496094 302.027344 C 140.511719 302.011719 140.523438 302 140.539062 301.988281 C 140.914062 301.660156 141.210938 301.253906 141.441406 300.8125 C 141.667969 300.371094 141.828125 299.894531 141.957031 299.414062 C 142.40625 297.710938 142.589844 295.945312 142.871094 294.207031 C 143.277344 291.707031 143.652344 289.203125 143.921875 286.6875 C 146.59375 285.839844 149.273438 285.019531 151.953125 284.191406 C 152.863281 283.90625 153.777344 283.628906 154.675781 283.3125 C 155.644531 282.972656 156.617188 282.574219 157.398438 281.914062 C 157.421875 281.894531 157.441406 281.878906 157.464844 281.859375 C 157.859375 281.511719 158.199219 281.09375 158.425781 280.617188 C 158.648438 280.140625 158.761719 279.605469 158.730469 279.082031 C 158.691406 278.34375 158.375 277.636719 157.902344 277.070312 C 157.433594 276.503906 156.824219 276.070312 156.179688 275.707031 C 153.855469 274.40625 151.292969 273.585938 148.871094 272.476562 C 147.074219 271.652344 145.273438 270.839844 143.449219 270.078125 C 143.535156 268.320312 143.554688 266.558594 143.574219 264.796875 C 143.59375 263.078125 143.683594 261.359375 143.855469 259.652344 C 143.964844 258.527344 144.09375 257.390625 143.925781 256.273438 C 143.839844 255.71875 143.679688 255.167969 143.410156 254.671875 C 143.144531 254.175781 142.769531 253.734375 142.308594 253.40625 C 141.792969 253.039062 141.179688 252.820312 140.550781 252.773438 C 139.917969 252.722656 139.28125 252.839844 138.695312 253.074219 C 138.050781 253.328125 137.476562 253.714844 136.945312 254.164062 C 136.511719 254.53125 136.105469 254.941406 135.714844 255.359375 C 134.617188 256.542969 133.585938 257.789062 132.445312 258.929688 C 131.820312 259.550781 131.167969 260.152344 130.492188 260.722656 C 129.808594 261.300781 129.101562 261.847656 128.367188 262.363281 C 125.773438 261.109375 123.109375 260.007812 120.417969 258.992188 C 119.339844 258.585938 118.265625 258.167969 117.171875 257.808594 C 116.253906 257.503906 115.300781 257.246094 114.335938 257.296875 C 113.851562 257.324219 113.371094 257.429688 112.933594 257.636719 C 112.691406 257.75 112.460938 257.898438 112.253906 258.070312 C 112.09375 258.210938 111.945312 258.363281 111.816406 258.53125 C 111.484375 258.960938 111.28125 259.484375 111.214844 260.019531 C 111.144531 260.558594 111.203125 261.105469 111.339844 261.628906 C 111.617188 262.675781 112.179688 263.617188 112.703125 264.566406 C 113.222656 265.507812 113.71875 266.464844 114.234375 267.410156 C 114.886719 268.597656 115.605469 269.746094 116.285156 270.914062 C 116.984375 272.113281 117.625 273.355469 118.15625 274.640625 Z M 118.15625 274.640625 " fill-opacity="1" fill-rule="nonzero"/><path fill="#ff8dbe" d="M 120.171875 272.550781 C 119.414062 271.675781 118.746094 270.722656 118.179688 269.714844 C 117.542969 268.582031 117.039062 267.378906 116.671875 266.136719 C 116.566406 265.769531 116.773438 265.390625 117.136719 265.285156 C 117.5 265.175781 117.882812 265.386719 117.988281 265.75 C 118.324219 266.894531 118.789062 268 119.375 269.042969 C 119.894531 269.972656 120.511719 270.847656 121.207031 271.652344 C 121.457031 271.941406 121.425781 272.371094 121.136719 272.621094 C 120.851562 272.867188 120.417969 272.835938 120.171875 272.550781 Z M 120.171875 272.550781 " fill-opacity="1" fill-rule="nonzero"/><path fill="#ff8dbe" d="M 116.628906 262.722656 C 116.9375 263.085938 116.890625 263.625 116.527344 263.933594 C 116.167969 264.238281 115.625 264.191406 115.320312 263.832031 C 115.015625 263.46875 115.058594 262.929688 115.421875 262.621094 C 115.785156 262.316406 116.324219 262.363281 116.628906 262.722656 Z M 116.628906 262.722656 " fill-opacity="1" fill-rule="nonzero"/><path fill="#ff8dbe" d="M 144.5625 273.820312 C 144.050781 273.582031 143.511719 273.394531 142.945312 273.199219 C 142.828125 273.15625 142.699219 273.113281 142.578125 273.070312 C 142.246094 272.953125 141.882812 272.8125 141.539062 272.601562 C 141.191406 272.394531 140.867188 272.105469 140.632812 271.742188 L 140.605469 271.691406 L 140.632812 271.742188 C 140.410156 271.398438 140.285156 271.015625 140.230469 270.636719 C 140.175781 270.261719 140.191406 269.890625 140.222656 269.550781 C 140.273438 268.960938 140.375 268.378906 140.472656 267.820312 C 140.484375 267.75 140.492188 267.707031 140.503906 267.640625 C 140.550781 267.375 140.804688 267.195312 141.070312 267.238281 C 141.335938 267.285156 141.515625 267.539062 141.46875 267.804688 C 141.457031 267.875 141.449219 267.917969 141.4375 267.988281 C 141.339844 268.550781 141.246094 269.09375 141.195312 269.640625 C 141.167969 269.945312 141.164062 270.230469 141.199219 270.496094 C 141.238281 270.761719 141.324219 271.007812 141.457031 271.210938 L 141.484375 271.257812 L 141.457031 271.210938 C 141.597656 271.429688 141.800781 271.617188 142.046875 271.765625 C 142.300781 271.917969 142.585938 272.03125 142.90625 272.144531 C 143.019531 272.1875 143.15625 272.234375 143.269531 272.273438 C 143.824219 272.46875 144.410156 272.671875 144.972656 272.933594 C 145.21875 273.046875 145.328125 273.335938 145.210938 273.582031 C 145.097656 273.828125 144.808594 273.933594 144.5625 273.820312 Z M 144.5625 273.820312 " fill-opacity="1" fill-rule="nonzero"/><path fill="#ff8dbe" d="M 146.851562 273.914062 C 147.023438 274.121094 147 274.429688 146.792969 274.605469 C 146.585938 274.78125 146.277344 274.753906 146.101562 274.546875 C 145.925781 274.339844 145.953125 274.03125 146.160156 273.859375 C 146.367188 273.683594 146.675781 273.710938 146.851562 273.914062 Z M 146.851562 273.914062 " fill-opacity="1" fill-rule="nonzero"/><path fill="#ff8dbe" d="M 169.746094 140.089844 C 169.5 141.335938 169.285156 142.589844 169.066406 143.839844 C 168.925781 144.640625 168.753906 145.4375 168.625 146.238281 C 168.539062 146.765625 168.488281 147.308594 168.609375 147.824219 C 168.667969 148.085938 168.773438 148.332031 168.929688 148.550781 C 169.085938 148.765625 169.289062 148.945312 169.527344 149.066406 C 169.9375 149.273438 170.429688 149.292969 170.875 149.183594 C 171.324219 149.070312 171.734375 148.847656 172.132812 148.609375 C 172.957031 148.121094 173.78125 147.625 174.632812 147.1875 C 175.613281 146.679688 176.59375 146.167969 177.542969 145.597656 C 178.570312 146.207031 179.558594 146.882812 180.523438 147.585938 C 181.261719 148.125 181.988281 148.683594 182.773438 149.152344 C 183.167969 149.386719 183.574219 149.597656 184.007812 149.75 C 184.4375 149.902344 184.898438 149.992188 185.351562 149.96875 C 185.71875 149.949219 186.082031 149.855469 186.394531 149.664062 C 186.695312 149.480469 186.945312 149.210938 187.101562 148.890625 C 187.105469 148.882812 187.109375 148.871094 187.113281 148.863281 C 187.230469 148.613281 187.289062 148.34375 187.304688 148.070312 C 187.320312 147.796875 187.296875 147.523438 187.253906 147.253906 C 187.101562 146.292969 186.796875 145.363281 186.550781 144.425781 C 186.199219 143.078125 185.828125 141.734375 185.402344 140.40625 C 186.558594 139.382812 187.726562 138.375 188.886719 137.359375 C 189.285156 137.015625 189.679688 136.671875 190.0625 136.308594 C 190.476562 135.921875 190.875 135.507812 191.121094 135 C 191.128906 134.984375 191.136719 134.96875 191.140625 134.957031 C 191.265625 134.691406 191.339844 134.40625 191.347656 134.117188 C 191.355469 133.828125 191.292969 133.535156 191.160156 133.277344 C 190.976562 132.914062 190.660156 132.628906 190.296875 132.449219 C 189.933594 132.269531 189.527344 132.183594 189.125 132.148438 C 187.664062 132.011719 186.191406 132.171875 184.722656 132.152344 C 183.636719 132.136719 182.546875 132.128906 181.460938 132.152344 C 181.113281 131.25 180.730469 130.359375 180.347656 129.46875 C 179.972656 128.597656 179.632812 127.714844 179.339844 126.816406 C 179.144531 126.226562 178.957031 125.625 178.621094 125.101562 C 178.453125 124.839844 178.25 124.597656 178.003906 124.40625 C 177.757812 124.21875 177.472656 124.078125 177.167969 124.015625 C 176.828125 123.945312 176.46875 123.972656 176.140625 124.089844 C 175.8125 124.207031 175.519531 124.40625 175.273438 124.65625 C 175.007812 124.925781 174.804688 125.25 174.636719 125.59375 C 174.5 125.875 174.386719 126.171875 174.285156 126.46875 C 173.996094 127.3125 173.753906 128.167969 173.433594 128.996094 C 173.257812 129.449219 173.066406 129.894531 172.851562 130.332031 C 172.636719 130.777344 172.402344 131.210938 172.148438 131.632812 C 170.5625 131.582031 168.976562 131.621094 167.394531 131.710938 C 166.761719 131.746094 166.128906 131.777344 165.5 131.839844 C 164.96875 131.890625 164.429688 131.972656 163.957031 132.214844 C 163.71875 132.335938 163.5 132.496094 163.328125 132.695312 C 163.230469 132.808594 163.148438 132.933594 163.082031 133.066406 C 163.03125 133.171875 162.992188 133.285156 162.964844 133.398438 C 162.894531 133.6875 162.90625 133.996094 162.992188 134.28125 C 163.078125 134.566406 163.230469 134.828125 163.414062 135.0625 C 163.789062 135.527344 164.28125 135.875 164.757812 136.238281 C 165.230469 136.59375 165.691406 136.964844 166.164062 137.328125 C 166.753906 137.777344 167.371094 138.195312 167.976562 138.632812 C 168.59375 139.082031 169.191406 139.5625 169.746094 140.089844 Z M 169.746094 140.089844 " fill-opacity="1" fill-rule="nonzero"/><path fill="#ff8dbe" d="M 170.296875 138.589844 C 169.71875 138.320312 169.171875 137.988281 168.660156 137.605469 C 168.089844 137.179688 167.566406 136.6875 167.105469 136.140625 C 166.96875 135.980469 166.988281 135.742188 167.148438 135.609375 C 167.308594 135.472656 167.546875 135.492188 167.679688 135.652344 C 168.105469 136.15625 168.585938 136.609375 169.113281 137 C 169.582031 137.351562 170.085938 137.65625 170.617188 137.90625 C 170.804688 137.996094 170.886719 138.222656 170.796875 138.410156 C 170.710938 138.597656 170.484375 138.679688 170.296875 138.589844 Z M 170.296875 138.589844 " fill-opacity="1" fill-rule="nonzero"/><path fill="#ff8dbe" d="M 166.320312 134.433594 C 166.554688 134.546875 166.65625 134.828125 166.539062 135.066406 C 166.425781 135.300781 166.144531 135.398438 165.910156 135.28125 C 165.675781 135.167969 165.578125 134.886719 165.691406 134.652344 C 165.804688 134.417969 166.085938 134.320312 166.320312 134.433594 Z M 166.320312 134.433594 " fill-opacity="1" fill-rule="nonzero"/><path fill="#ff8dbe" d="M 182.855469 133.789062 C 182.542969 133.785156 182.230469 133.808594 181.902344 133.835938 C 181.835938 133.839844 181.761719 133.847656 181.691406 133.851562 C 181.496094 133.867188 181.28125 133.878906 181.0625 133.851562 C 180.839844 133.820312 180.613281 133.75 180.414062 133.617188 L 180.390625 133.601562 L 180.414062 133.617188 C 180.226562 133.496094 180.078125 133.332031 179.964844 133.152344 C 179.855469 132.976562 179.777344 132.785156 179.71875 132.609375 C 179.613281 132.296875 179.535156 131.984375 179.460938 131.679688 C 179.449219 131.644531 179.445312 131.621094 179.433594 131.582031 C 179.398438 131.4375 179.484375 131.292969 179.628906 131.253906 C 179.773438 131.21875 179.921875 131.308594 179.957031 131.453125 C 179.96875 131.488281 179.972656 131.511719 179.980469 131.550781 C 180.058594 131.855469 180.132812 132.148438 180.230469 132.433594 C 180.285156 132.59375 180.34375 132.738281 180.421875 132.867188 C 180.5 132.988281 180.597656 133.09375 180.710938 133.167969 L 180.734375 133.1875 L 180.710938 133.167969 C 180.828125 133.246094 180.976562 133.296875 181.132812 133.316406 C 181.292969 133.335938 181.460938 133.328125 181.648438 133.316406 C 181.714844 133.308594 181.792969 133.304688 181.859375 133.296875 C 182.183594 133.273438 182.523438 133.242188 182.863281 133.25 C 183.015625 133.253906 183.132812 133.375 183.128906 133.523438 C 183.128906 133.671875 183.003906 133.792969 182.855469 133.789062 Z M 182.855469 133.789062 " fill-opacity="1" fill-rule="nonzero"/><path fill="#ff8dbe" d="M 184.027344 133.328125 C 184.164062 133.390625 184.21875 133.550781 184.152344 133.6875 C 184.089844 133.820312 183.925781 133.875 183.792969 133.8125 C 183.660156 133.746094 183.601562 133.585938 183.667969 133.449219 C 183.734375 133.316406 183.894531 133.261719 184.027344 133.328125 Z M 184.027344 133.328125 " fill-opacity="1" fill-rule="nonzero"/><g clip-path="url(#1c75fbc452)"><path fill="#ff8dbe" d="M 334.042969 356.210938 C 333.796875 357.457031 333.582031 358.710938 333.363281 359.960938 C 333.222656 360.761719 333.046875 361.558594 332.921875 362.363281 C 332.835938 362.886719 332.78125 363.429688 332.902344 363.945312 C 332.964844 364.207031 333.070312 364.457031 333.226562 364.671875 C 333.382812 364.886719 333.585938 365.066406 333.824219 365.1875 C 334.234375 365.398438 334.726562 365.414062 335.171875 365.304688 C 335.621094 365.191406 336.03125 364.96875 336.429688 364.730469 C 337.253906 364.242188 338.074219 363.75 338.929688 363.308594 C 339.910156 362.800781 340.890625 362.289062 341.835938 361.722656 C 342.867188 362.328125 343.851562 363.003906 344.820312 363.707031 C 345.558594 364.246094 346.285156 364.804688 347.070312 365.273438 C 347.464844 365.507812 347.871094 365.71875 348.304688 365.871094 C 348.734375 366.023438 349.191406 366.113281 349.648438 366.089844 C 350.015625 366.070312 350.378906 365.976562 350.691406 365.789062 C 350.992188 365.605469 351.242188 365.332031 351.398438 365.011719 C 351.402344 365.003906 351.40625 364.992188 351.410156 364.984375 C 351.527344 364.734375 351.585938 364.464844 351.601562 364.191406 C 351.617188 363.917969 351.59375 363.644531 351.550781 363.375 C 351.394531 362.414062 351.09375 361.484375 350.847656 360.546875 C 350.496094 359.199219 350.125 357.855469 349.699219 356.527344 C 350.855469 355.507812 352.023438 354.496094 353.183594 353.480469 C 353.578125 353.136719 353.976562 352.792969 354.359375 352.433594 C 354.773438 352.042969 355.171875 351.628906 355.417969 351.121094 C 355.425781 351.105469 355.433594 351.09375 355.4375 351.078125 C 355.5625 350.816406 355.636719 350.527344 355.644531 350.238281 C 355.652344 349.949219 355.589844 349.65625 355.457031 349.398438 C 355.273438 349.035156 354.957031 348.75 354.59375 348.570312 C 354.230469 348.390625 353.824219 348.308594 353.421875 348.269531 C 351.960938 348.132812 350.488281 348.292969 349.019531 348.273438 C 347.933594 348.257812 346.84375 348.25 345.757812 348.273438 C 345.40625 347.371094 345.027344 346.480469 344.640625 345.589844 C 344.269531 344.71875 343.929688 343.835938 343.636719 342.9375 C 343.441406 342.347656 343.25 341.746094 342.917969 341.222656 C 342.75 340.960938 342.546875 340.71875 342.300781 340.527344 C 342.054688 340.339844 341.769531 340.199219 341.464844 340.136719 C 341.125 340.066406 340.765625 340.09375 340.4375 340.210938 C 340.109375 340.328125 339.816406 340.527344 339.570312 340.777344 C 339.304688 341.046875 339.101562 341.371094 338.933594 341.714844 C 338.796875 341.996094 338.683594 342.296875 338.582031 342.59375 C 338.292969 343.433594 338.050781 344.289062 337.730469 345.117188 C 337.554688 345.570312 337.363281 346.015625 337.148438 346.453125 C 336.933594 346.898438 336.699219 347.332031 336.445312 347.753906 C 334.859375 347.703125 333.273438 347.742188 331.691406 347.832031 C 331.058594 347.867188 330.425781 347.898438 329.792969 347.960938 C 329.265625 348.011719 328.726562 348.09375 328.253906 348.335938 C 328.015625 348.457031 327.796875 348.617188 327.625 348.816406 C 327.527344 348.929688 327.441406 349.054688 327.378906 349.191406 C 327.328125 349.296875 327.285156 349.40625 327.257812 349.519531 C 327.191406 349.808594 327.203125 350.117188 327.289062 350.402344 C 327.375 350.6875 327.523438 350.949219 327.710938 351.183594 C 328.085938 351.648438 328.578125 351.996094 329.054688 352.359375 C 329.523438 352.714844 329.988281 353.089844 330.457031 353.449219 C 331.050781 353.898438 331.667969 354.316406 332.269531 354.753906 C 332.890625 355.203125 333.488281 355.683594 334.042969 356.210938 Z M 334.042969 356.210938 " fill-opacity="1" fill-rule="nonzero"/></g><path fill="#ff8dbe" d="M 334.59375 354.710938 C 334.015625 354.441406 333.464844 354.109375 332.957031 353.726562 C 332.382812 353.300781 331.863281 352.808594 331.402344 352.261719 C 331.265625 352.101562 331.285156 351.863281 331.445312 351.730469 C 331.605469 351.59375 331.84375 351.617188 331.976562 351.773438 C 332.402344 352.277344 332.882812 352.730469 333.410156 353.125 C 333.878906 353.476562 334.382812 353.777344 334.914062 354.027344 C 335.101562 354.117188 335.183594 354.34375 335.09375 354.53125 C 335.007812 354.71875 334.78125 354.800781 334.59375 354.710938 Z M 334.59375 354.710938 " fill-opacity="1" fill-rule="nonzero"/><path fill="#ff8dbe" d="M 330.617188 350.554688 C 330.851562 350.667969 330.949219 350.953125 330.835938 351.1875 C 330.722656 351.421875 330.441406 351.519531 330.207031 351.40625 C 329.972656 351.289062 329.875 351.007812 329.988281 350.773438 C 330.101562 350.539062 330.382812 350.441406 330.617188 350.554688 Z M 330.617188 350.554688 " fill-opacity="1" fill-rule="nonzero"/><path fill="#ff8dbe" d="M 347.152344 349.910156 C 346.839844 349.90625 346.527344 349.929688 346.199219 349.957031 C 346.128906 349.960938 346.058594 349.96875 345.988281 349.972656 C 345.792969 349.988281 345.578125 350 345.359375 349.972656 C 345.136719 349.941406 344.910156 349.871094 344.710938 349.738281 L 344.683594 349.722656 L 344.710938 349.738281 C 344.523438 349.617188 344.375 349.453125 344.261719 349.273438 C 344.152344 349.097656 344.074219 348.90625 344.015625 348.730469 C 343.910156 348.421875 343.832031 348.105469 343.753906 347.800781 C 343.746094 347.765625 343.738281 347.742188 343.730469 347.703125 C 343.695312 347.558594 343.78125 347.414062 343.925781 347.378906 C 344.070312 347.339844 344.21875 347.429688 344.253906 347.574219 C 344.261719 347.609375 344.269531 347.632812 344.277344 347.671875 C 344.355469 347.976562 344.429688 348.269531 344.527344 348.554688 C 344.578125 348.714844 344.640625 348.859375 344.71875 348.988281 C 344.796875 349.113281 344.894531 349.214844 345.007812 349.289062 L 345.03125 349.308594 L 345.007812 349.289062 C 345.125 349.367188 345.269531 349.417969 345.429688 349.4375 C 345.589844 349.457031 345.757812 349.449219 345.945312 349.4375 C 346.011719 349.429688 346.089844 349.425781 346.15625 349.417969 C 346.480469 349.394531 346.820312 349.367188 347.160156 349.371094 C 347.308594 349.375 347.429688 349.496094 347.425781 349.644531 C 347.421875 349.792969 347.300781 349.914062 347.152344 349.910156 Z M 347.152344 349.910156 " fill-opacity="1" fill-rule="nonzero"/><path fill="#ff8dbe" d="M 348.324219 349.449219 C 348.457031 349.511719 348.515625 349.675781 348.449219 349.808594 C 348.382812 349.941406 348.222656 350 348.089844 349.933594 C 347.953125 349.867188 347.898438 349.707031 347.964844 349.574219 C 348.027344 349.4375 348.191406 349.382812 348.324219 349.449219 Z M 348.324219 349.449219 " fill-opacity="1" fill-rule="nonzero"/><path fill="#ff8dbe" d="M 110.328125 168.566406 C 108.214844 165.894531 106.035156 163.277344 103.863281 160.652344 C 102.613281 159.140625 101.417969 157.585938 100.160156 156.082031 C 100.019531 155.914062 99.875 155.742188 99.734375 155.578125 C 98.808594 154.492188 97.792969 153.441406 96.527344 152.785156 C 95.894531 152.457031 95.199219 152.238281 94.488281 152.183594 C 93.777344 152.125 93.054688 152.230469 92.394531 152.503906 C 91.253906 152.980469 90.359375 153.945312 89.808594 155.054688 C 89.257812 156.160156 89.003906 157.390625 88.792969 158.609375 C 88.363281 161.148438 87.933594 163.683594 87.347656 166.191406 C 86.675781 169.074219 86.015625 171.964844 85.527344 174.886719 C 82.496094 175.925781 79.402344 176.765625 76.285156 177.515625 C 73.902344 178.085938 71.496094 178.597656 69.171875 179.382812 C 68.007812 179.773438 66.867188 180.242188 65.808594 180.859375 C 64.75 181.476562 63.765625 182.25 63.019531 183.222656 C 62.425781 184 61.988281 184.910156 61.832031 185.875 C 61.671875 186.839844 61.804688 187.851562 62.214844 188.742188 C 62.421875 189.191406 62.691406 189.605469 63.007812 189.984375 C 63.164062 190.167969 63.328125 190.34375 63.5 190.511719 C 64.03125 191.019531 64.632812 191.445312 65.257812 191.828125 C 67.484375 193.183594 69.902344 194.183594 72.246094 195.316406 C 75.613281 196.941406 78.996094 198.523438 82.445312 199.960938 C 82.523438 204.097656 82.550781 208.238281 82.601562 212.375 C 82.617188 213.785156 82.628906 215.191406 82.695312 216.601562 C 82.773438 218.15625 82.933594 219.742188 83.582031 221.15625 C 83.804688 221.640625 84.085938 222.101562 84.429688 222.507812 C 84.585938 222.695312 84.753906 222.875 84.9375 223.039062 C 85.515625 223.558594 86.222656 223.9375 86.980469 224.117188 C 88.039062 224.367188 89.171875 224.21875 90.171875 223.792969 C 91.171875 223.363281 92.046875 222.683594 92.824219 221.925781 C 95.648438 219.183594 97.882812 215.898438 100.472656 212.9375 C 102.394531 210.746094 104.304688 208.539062 106.144531 206.277344 C 108.597656 207.136719 111.082031 207.910156 113.566406 208.675781 C 115.988281 209.425781 118.382812 210.273438 120.730469 211.234375 C 122.273438 211.867188 123.828125 212.527344 125.476562 212.757812 C 126.300781 212.871094 127.148438 212.875 127.964844 212.703125 C 128.777344 212.53125 129.5625 212.1875 130.21875 211.675781 C 130.953125 211.101562 131.519531 210.320312 131.855469 209.453125 C 132.1875 208.582031 132.292969 207.632812 132.207031 206.703125 C 132.039062 204.847656 131.171875 203.128906 130.222656 201.523438 C 129.011719 199.472656 127.683594 197.488281 126.550781 195.394531 C 125.300781 193.082031 124.238281 190.671875 123.40625 188.179688 C 126.269531 185.039062 128.949219 181.734375 131.519531 178.347656 C 132.546875 176.996094 133.585938 175.648438 134.558594 174.253906 C 135.371094 173.082031 136.136719 171.839844 136.472656 170.453125 C 136.640625 169.761719 136.691406 169.035156 136.585938 168.332031 C 136.476562 167.625 136.203125 166.945312 135.785156 166.367188 C 135.730469 166.292969 135.671875 166.21875 135.613281 166.144531 C 135.160156 165.605469 134.578125 165.175781 133.933594 164.890625 C 133.203125 164.566406 132.402344 164.421875 131.601562 164.398438 C 130.007812 164.351562 128.433594 164.75 126.875 165.089844 C 125.320312 165.429688 123.757812 165.726562 122.203125 166.0625 C 120.25 166.480469 118.328125 167.015625 116.386719 167.488281 C 114.390625 167.972656 112.371094 168.355469 110.328125 168.566406 Z M 110.328125 168.566406 " fill-opacity="1" fill-rule="nonzero"/><path fill="#ff8dbe" d="M 129.527344 169.898438 C 127.105469 169.847656 124.671875 170.175781 122.34375 170.863281 C 120.65625 171.363281 119.023438 172.054688 117.488281 172.914062 C 117.050781 173.164062 116.492188 173.007812 116.246094 172.566406 C 116 172.125 116.15625 171.570312 116.59375 171.320312 C 118.25 170.394531 120.007812 169.648438 121.824219 169.113281 C 124.332031 168.367188 126.953125 168.015625 129.566406 168.070312 C 130.070312 168.082031 130.472656 168.5 130.460938 169.003906 C 130.453125 169.507812 130.035156 169.90625 129.527344 169.898438 Z M 129.527344 169.898438 " fill-opacity="1" fill-rule="nonzero"/><path fill="#ff8dbe" d="M 114.335938 174.761719 C 113.832031 175.183594 113.082031 175.113281 112.660156 174.609375 C 112.238281 174.105469 112.304688 173.355469 112.808594 172.933594 C 113.3125 172.515625 114.0625 172.582031 114.484375 173.085938 C 114.90625 173.589844 114.839844 174.339844 114.335938 174.761719 Z M 114.335938 174.761719 " fill-opacity="1" fill-rule="nonzero"/><path fill="#ff8dbe" d="M 88.550781 213.4375 C 88.046875 213.859375 87.296875 213.789062 86.875 213.285156 C 86.453125 212.78125 86.523438 212.03125 87.027344 211.609375 C 87.53125 211.1875 88.28125 211.257812 88.703125 211.761719 C 89.121094 212.265625 89.054688 213.015625 88.550781 213.4375 Z M 88.550781 213.4375 " fill-opacity="1" fill-rule="nonzero"/><path fill="#ff8dbe" d="M 89.242188 218.023438 C 88.738281 218.445312 87.988281 218.378906 87.566406 217.871094 C 87.148438 217.367188 87.214844 216.617188 87.71875 216.199219 C 88.222656 215.777344 88.972656 215.84375 89.394531 216.347656 C 89.816406 216.851562 89.75 217.601562 89.242188 218.023438 Z M 89.242188 218.023438 " fill-opacity="1" fill-rule="nonzero"/><path fill="#ff8dbe" d="M 92.265625 215.214844 C 91.761719 215.636719 91.011719 215.570312 90.589844 215.066406 C 90.167969 214.5625 90.238281 213.8125 90.742188 213.390625 C 91.246094 212.96875 91.996094 213.035156 92.417969 213.539062 C 92.839844 214.042969 92.769531 214.792969 92.265625 215.214844 Z M 92.265625 215.214844 " fill-opacity="1" fill-rule="nonzero"/><g clip-path="url(#9920febe96)"><path fill="#ff8dbe" d="M 269.324219 114.117188 C 266.199219 115.464844 263.105469 116.894531 260.007812 118.3125 C 258.226562 119.128906 256.414062 119.882812 254.632812 120.707031 C 254.433594 120.800781 254.234375 120.890625 254.035156 120.988281 C 252.75 121.601562 251.46875 122.308594 250.511719 123.363281 C 250.03125 123.890625 249.640625 124.503906 249.398438 125.175781 C 249.160156 125.847656 249.078125 126.574219 249.171875 127.28125 C 249.332031 128.507812 250.035156 129.617188 250.960938 130.4375 C 251.890625 131.257812 253.011719 131.824219 254.136719 132.339844 C 256.472656 133.414062 258.8125 134.484375 261.082031 135.695312 C 263.695312 137.09375 266.316406 138.480469 269.011719 139.707031 C 269.230469 142.902344 269.242188 146.109375 269.15625 149.3125 C 269.09375 151.765625 268.964844 154.222656 269.121094 156.671875 C 269.199219 157.894531 269.355469 159.117188 269.675781 160.300781 C 270 161.484375 270.492188 162.632812 271.238281 163.605469 C 271.835938 164.382812 272.601562 165.039062 273.492188 165.441406 C 274.382812 165.84375 275.394531 165.976562 276.359375 165.8125 C 276.847656 165.730469 277.316406 165.574219 277.765625 165.367188 C 277.984375 165.265625 278.195312 165.152344 278.402344 165.027344 C 279.03125 164.648438 279.601562 164.175781 280.128906 163.667969 C 282.015625 161.871094 283.605469 159.792969 285.308594 157.824219 C 287.746094 154.992188 290.152344 152.132812 292.433594 149.175781 C 296.449219 150.171875 300.457031 151.214844 304.464844 152.238281 C 305.832031 152.585938 307.195312 152.941406 308.570312 153.238281 C 310.09375 153.566406 311.667969 153.824219 313.203125 153.5625 C 313.726562 153.472656 314.242188 153.320312 314.726562 153.09375 C 314.949219 152.992188 315.164062 152.875 315.371094 152.738281 C 316.023438 152.3125 316.570312 151.730469 316.941406 151.046875 C 317.457031 150.089844 317.605469 148.957031 317.453125 147.878906 C 317.296875 146.800781 316.867188 145.78125 316.335938 144.832031 C 314.417969 141.398438 311.824219 138.386719 309.636719 135.121094 C 308.011719 132.695312 306.378906 130.28125 304.667969 127.917969 C 306.136719 125.769531 307.523438 123.570312 308.90625 121.371094 C 310.257812 119.222656 311.695312 117.128906 313.234375 115.113281 C 314.242188 113.785156 315.28125 112.453125 315.929688 110.921875 C 316.257812 110.152344 316.476562 109.335938 316.523438 108.503906 C 316.570312 107.671875 316.4375 106.828125 316.113281 106.0625 C 315.75 105.203125 315.144531 104.453125 314.390625 103.90625 C 313.636719 103.355469 312.742188 103.011719 311.824219 102.851562 C 309.988281 102.535156 308.105469 102.929688 306.308594 103.429688 C 304.015625 104.070312 301.753906 104.835938 299.4375 105.390625 C 296.882812 105.996094 294.277344 106.398438 291.65625 106.5625 C 289.363281 102.980469 286.863281 99.539062 284.257812 96.179688 C 283.21875 94.835938 282.1875 93.484375 281.089844 92.183594 C 280.167969 91.09375 279.167969 90.035156 277.914062 89.351562 C 277.289062 89.011719 276.601562 88.773438 275.894531 88.695312 C 275.183594 88.617188 274.457031 88.703125 273.789062 88.957031 C 273.703125 88.992188 273.617188 89.027344 273.53125 89.066406 C 272.890625 89.363281 272.328125 89.816406 271.882812 90.363281 C 271.382812 90.984375 271.035156 91.722656 270.804688 92.488281 C 270.34375 94.015625 270.324219 95.640625 270.25 97.234375 C 270.175781 98.824219 270.058594 100.410156 269.980469 101.996094 C 269.878906 103.992188 269.898438 105.988281 269.851562 107.984375 C 269.804688 110.039062 269.652344 112.089844 269.324219 114.117188 Z M 269.324219 114.117188 " fill-opacity="1" fill-rule="nonzero"/></g><path fill="#ff8dbe" d="M 275.582031 95.914062 C 274.90625 98.242188 274.589844 100.679688 274.65625 103.105469 C 274.699219 104.863281 274.945312 106.617188 275.378906 108.324219 C 275.503906 108.8125 275.210938 109.3125 274.71875 109.4375 C 274.230469 109.558594 273.734375 109.265625 273.609375 108.777344 C 273.140625 106.9375 272.875 105.046875 272.828125 103.152344 C 272.757812 100.539062 273.097656 97.914062 273.824219 95.40625 C 273.964844 94.917969 274.472656 94.640625 274.957031 94.78125 C 275.441406 94.921875 275.722656 95.429688 275.582031 95.914062 Z M 275.582031 95.914062 " fill-opacity="1" fill-rule="nonzero"/><path fill="#ff8dbe" d="M 276.347656 111.847656 C 276.621094 112.445312 276.363281 113.152344 275.765625 113.429688 C 275.171875 113.707031 274.464844 113.445312 274.1875 112.851562 C 273.910156 112.253906 274.171875 111.546875 274.765625 111.269531 C 275.363281 110.992188 276.070312 111.253906 276.347656 111.847656 Z M 276.347656 111.847656 " fill-opacity="1" fill-rule="nonzero"/><path fill="#ff8dbe" d="M 307.03125 146.765625 C 307.308594 147.359375 307.046875 148.066406 306.453125 148.34375 C 305.855469 148.621094 305.148438 148.359375 304.871094 147.765625 C 304.597656 147.167969 304.855469 146.460938 305.453125 146.183594 C 306.046875 145.910156 306.753906 146.167969 307.03125 146.765625 Z M 307.03125 146.765625 " fill-opacity="1" fill-rule="nonzero"/><path fill="#ff8dbe" d="M 311.640625 147.28125 C 311.917969 147.878906 311.65625 148.585938 311.0625 148.863281 C 310.464844 149.136719 309.757812 148.878906 309.480469 148.28125 C 309.207031 147.6875 309.464844 146.980469 310.0625 146.703125 C 310.65625 146.425781 311.363281 146.6875 311.640625 147.28125 Z M 311.640625 147.28125 " fill-opacity="1" fill-rule="nonzero"/><path fill="#ff8dbe" d="M 309.710938 143.636719 C 309.988281 144.230469 309.726562 144.9375 309.132812 145.214844 C 308.535156 145.492188 307.828125 145.234375 307.554688 144.636719 C 307.277344 144.039062 307.535156 143.332031 308.132812 143.058594 C 308.726562 142.78125 309.433594 143.039062 309.710938 143.636719 Z M 309.710938 143.636719 " fill-opacity="1" fill-rule="nonzero"/><path fill="#ff8dbe" d="M 217.433594 315.664062 C 215.359375 315.933594 213.296875 316.257812 211.230469 316.574219 C 210.039062 316.753906 208.84375 316.894531 207.652344 317.082031 C 207.519531 317.101562 207.386719 317.125 207.253906 317.144531 C 206.390625 317.292969 205.515625 317.496094 204.773438 317.957031 C 204.402344 318.1875 204.066406 318.480469 203.8125 318.839844 C 203.558594 319.195312 203.386719 319.609375 203.324219 320.042969 C 203.210938 320.792969 203.441406 321.570312 203.847656 322.207031 C 204.257812 322.847656 204.824219 323.371094 205.402344 323.863281 C 206.601562 324.890625 207.804688 325.917969 208.9375 327.015625 C 210.246094 328.277344 211.558594 329.539062 212.945312 330.714844 C 212.535156 332.640625 212.003906 334.535156 211.414062 336.410156 C 210.964844 337.847656 210.476562 339.277344 210.15625 340.746094 C 209.996094 341.480469 209.882812 342.230469 209.871094 342.984375 C 209.863281 343.734375 209.960938 344.496094 210.238281 345.195312 C 210.460938 345.753906 210.800781 346.273438 211.261719 346.660156 C 211.71875 347.046875 212.292969 347.296875 212.890625 347.359375 C 213.191406 347.394531 213.496094 347.382812 213.792969 347.335938 C 213.941406 347.3125 214.085938 347.28125 214.226562 347.242188 C 214.664062 347.121094 215.078125 346.941406 215.476562 346.730469 C 216.890625 345.988281 218.179688 345.027344 219.515625 344.148438 C 221.429688 342.890625 223.332031 341.605469 225.175781 340.242188 C 227.378906 341.507812 229.570312 342.796875 231.765625 344.074219 C 232.511719 344.511719 233.253906 344.949219 234.019531 345.355469 C 234.863281 345.808594 235.746094 346.222656 236.699219 346.328125 C 237.023438 346.363281 237.351562 346.359375 237.675781 346.308594 C 237.824219 346.285156 237.972656 346.25 238.117188 346.207031 C 238.570312 346.066406 238.996094 345.8125 239.328125 345.46875 C 239.792969 344.992188 240.074219 344.347656 240.164062 343.6875 C 240.253906 343.027344 240.167969 342.351562 240.015625 341.703125 C 239.460938 339.351562 238.4375 337.140625 237.695312 334.839844 C 237.144531 333.136719 236.585938 331.4375 235.976562 329.753906 C 237.203125 328.734375 238.390625 327.667969 239.578125 326.601562 C 240.738281 325.5625 241.9375 324.570312 243.183594 323.636719 C 244.003906 323.023438 244.839844 322.414062 245.480469 321.617188 C 245.800781 321.21875 246.070312 320.773438 246.238281 320.289062 C 246.40625 319.808594 246.46875 319.285156 246.40625 318.777344 C 246.335938 318.210938 246.105469 317.664062 245.75 317.214844 C 245.398438 316.765625 244.929688 316.410156 244.414062 316.164062 C 243.382812 315.667969 242.207031 315.582031 241.0625 315.574219 C 239.601562 315.566406 238.136719 315.640625 236.675781 315.578125 C 235.066406 315.507812 233.460938 315.304688 231.886719 314.960938 C 231.136719 312.460938 230.238281 310.007812 229.265625 307.585938 C 228.875 306.617188 228.496094 305.648438 228.066406 304.695312 C 227.707031 303.898438 227.292969 303.101562 226.671875 302.488281 C 226.359375 302.183594 225.992188 301.925781 225.585938 301.761719 C 225.183594 301.597656 224.738281 301.523438 224.300781 301.5625 C 224.242188 301.570312 224.1875 301.574219 224.128906 301.585938 C 223.703125 301.652344 223.292969 301.824219 222.941406 302.074219 C 222.539062 302.355469 222.210938 302.730469 221.945312 303.144531 C 221.417969 303.96875 221.132812 304.925781 220.820312 305.851562 C 220.507812 306.777344 220.171875 307.695312 219.859375 308.617188 C 219.464844 309.78125 219.136719 310.960938 218.777344 312.132812 C 218.402344 313.335938 217.964844 314.519531 217.433594 315.664062 Z M 217.433594 315.664062 " fill-opacity="1" fill-rule="nonzero"/><path fill="#ff8dbe" d="M 224.1875 305.96875 C 223.398438 307.230469 222.800781 308.617188 222.433594 310.058594 C 222.164062 311.105469 222.011719 312.183594 221.980469 313.261719 C 221.972656 313.570312 221.714844 313.816406 221.40625 313.808594 C 221.097656 313.796875 220.851562 313.539062 220.859375 313.230469 C 220.890625 312.066406 221.054688 310.90625 221.34375 309.78125 C 221.746094 308.226562 222.386719 306.734375 223.238281 305.375 C 223.402344 305.113281 223.75 305.03125 224.011719 305.195312 C 224.273438 305.363281 224.351562 305.707031 224.1875 305.96875 Z M 224.1875 305.96875 " fill-opacity="1" fill-rule="nonzero"/><path fill="#ff8dbe" d="M 221.960938 315.503906 C 222.023438 315.902344 221.75 316.277344 221.351562 316.339844 C 220.953125 316.402344 220.578125 316.132812 220.515625 315.734375 C 220.453125 315.335938 220.726562 314.960938 221.125 314.898438 C 221.523438 314.835938 221.894531 315.105469 221.960938 315.503906 Z M 221.960938 315.503906 " fill-opacity="1" fill-rule="nonzero"/><path fill="#ff8dbe" d="M 234.199219 341.277344 C 234.261719 341.675781 233.988281 342.046875 233.589844 342.113281 C 233.191406 342.175781 232.820312 341.902344 232.757812 341.503906 C 232.691406 341.105469 232.964844 340.730469 233.363281 340.667969 C 233.761719 340.605469 234.136719 340.878906 234.199219 341.277344 Z M 234.199219 341.277344 " fill-opacity="1" fill-rule="nonzero"/><path fill="#ff8dbe" d="M 236.832031 342.359375 C 236.894531 342.757812 236.625 343.128906 236.226562 343.191406 C 235.828125 343.253906 235.453125 342.984375 235.390625 342.585938 C 235.328125 342.1875 235.597656 341.8125 235.996094 341.75 C 236.394531 341.6875 236.769531 341.960938 236.832031 342.359375 Z M 236.832031 342.359375 " fill-opacity="1" fill-rule="nonzero"/><path fill="#ff8dbe" d="M 236.308594 339.878906 L 236.308594 339.882812 C 236.371094 340.277344 236.097656 340.652344 235.699219 340.714844 C 235.300781 340.777344 234.925781 340.507812 234.863281 340.109375 C 234.800781 339.710938 235.074219 339.335938 235.472656 339.273438 C 235.871094 339.210938 236.242188 339.484375 236.308594 339.878906 Z M 236.308594 339.878906 " fill-opacity="1" fill-rule="nonzero"/><g clip-path="url(#a1d7706bd6)"><path fill="#ff8dbe" d="M 16.933594 253.183594 C 16.230469 252.542969 15.507812 251.917969 14.789062 251.292969 C 14.375 250.933594 13.972656 250.558594 13.558594 250.199219 C 13.511719 250.160156 13.464844 250.117188 13.417969 250.078125 C 13.113281 249.820312 12.785156 249.578125 12.40625 249.453125 C 12.214844 249.390625 12.011719 249.363281 11.8125 249.378906 C 11.617188 249.394531 11.421875 249.460938 11.25 249.5625 C 10.957031 249.746094 10.753906 250.054688 10.652344 250.386719 C 10.550781 250.71875 10.535156 251.066406 10.535156 251.414062 C 10.53125 252.136719 10.527344 252.855469 10.480469 253.574219 C 10.425781 254.402344 10.375 255.230469 10.371094 256.058594 C 9.582031 256.484375 8.765625 256.855469 7.9375 257.207031 C 7.304688 257.472656 6.664062 257.722656 6.058594 258.046875 C 5.757812 258.207031 5.460938 258.386719 5.199219 258.605469 C 4.933594 258.824219 4.695312 259.082031 4.535156 259.386719 C 4.40625 259.628906 4.328125 259.898438 4.328125 260.171875 C 4.328125 260.445312 4.410156 260.71875 4.5625 260.949219 C 4.640625 261.0625 4.734375 261.164062 4.839844 261.253906 C 4.890625 261.296875 4.945312 261.339844 5 261.378906 C 5.167969 261.492188 5.355469 261.585938 5.546875 261.660156 C 6.222656 261.933594 6.933594 262.101562 7.632812 262.304688 C 8.636719 262.601562 9.644531 262.886719 10.664062 263.125 C 10.871094 264.265625 11.070312 265.40625 11.269531 266.546875 C 11.339844 266.933594 11.40625 267.324219 11.488281 267.710938 C 11.582031 268.136719 11.699219 268.566406 11.941406 268.929688 C 12.023438 269.050781 12.125 269.164062 12.238281 269.261719 C 12.289062 269.308594 12.34375 269.347656 12.402344 269.386719 C 12.585938 269.503906 12.796875 269.574219 13.015625 269.589844 C 13.320312 269.613281 13.625 269.519531 13.882812 269.355469 C 14.136719 269.191406 14.347656 268.964844 14.53125 268.71875 C 15.183594 267.832031 15.652344 266.824219 16.234375 265.890625 C 16.664062 265.195312 17.089844 264.5 17.496094 263.792969 C 18.214844 263.917969 18.933594 264.015625 19.65625 264.117188 C 20.359375 264.214844 21.058594 264.335938 21.75 264.496094 C 22.203125 264.601562 22.664062 264.710938 23.128906 264.699219 C 23.363281 264.695312 23.597656 264.65625 23.816406 264.574219 C 24.03125 264.488281 24.234375 264.359375 24.390625 264.1875 C 24.566406 263.996094 24.6875 263.753906 24.742188 263.496094 C 24.792969 263.242188 24.78125 262.976562 24.714844 262.722656 C 24.582031 262.21875 24.265625 261.78125 23.929688 261.382812 C 23.503906 260.871094 23.046875 260.382812 22.636719 259.855469 C 22.1875 259.273438 21.785156 258.65625 21.441406 258.007812 C 22.089844 257.007812 22.675781 255.972656 23.234375 254.921875 C 23.457031 254.5 23.679688 254.082031 23.886719 253.652344 C 24.058594 253.292969 24.210938 252.914062 24.242188 252.515625 C 24.257812 252.316406 24.238281 252.113281 24.175781 251.925781 C 24.113281 251.734375 24.007812 251.558594 23.867188 251.417969 C 23.847656 251.398438 23.828125 251.382812 23.808594 251.363281 C 23.660156 251.238281 23.476562 251.144531 23.289062 251.09375 C 23.070312 251.039062 22.84375 251.035156 22.621094 251.0625 C 22.179688 251.125 21.761719 251.304688 21.347656 251.472656 C 20.933594 251.636719 20.515625 251.789062 20.101562 251.953125 C 19.582031 252.15625 19.074219 252.390625 18.558594 252.609375 C 18.03125 252.835938 17.488281 253.035156 16.933594 253.183594 Z M 16.933594 253.183594 " fill-opacity="1" fill-rule="nonzero"/></g><path fill="#ff8dbe" d="M 22.300781 252.679688 C 21.625 252.773438 20.96875 252.976562 20.359375 253.273438 C 19.914062 253.488281 19.496094 253.75 19.109375 254.058594 C 19 254.148438 18.839844 254.128906 18.75 254.019531 C 18.664062 253.910156 18.679688 253.75 18.792969 253.660156 C 19.207031 253.328125 19.65625 253.042969 20.136719 252.8125 C 20.792969 252.492188 21.5 252.277344 22.226562 252.171875 C 22.367188 252.152344 22.496094 252.25 22.515625 252.386719 C 22.535156 252.527344 22.4375 252.65625 22.300781 252.679688 Z M 22.300781 252.679688 " fill-opacity="1" fill-rule="nonzero"/><path fill="#ff8dbe" d="M 18.324219 254.714844 C 18.203125 254.851562 17.992188 254.867188 17.855469 254.746094 C 17.714844 254.628906 17.699219 254.417969 17.820312 254.277344 C 17.9375 254.140625 18.148438 254.125 18.289062 254.242188 C 18.429688 254.363281 18.445312 254.574219 18.324219 254.714844 Z M 18.324219 254.714844 " fill-opacity="1" fill-rule="nonzero"/><path fill="#ff8dbe" d="M 12.960938 266.570312 C 12.84375 266.707031 12.632812 266.722656 12.492188 266.605469 C 12.351562 266.484375 12.339844 266.273438 12.457031 266.132812 C 12.578125 265.996094 12.789062 265.980469 12.925781 266.101562 C 13.066406 266.21875 13.082031 266.429688 12.960938 266.570312 Z M 12.960938 266.570312 " fill-opacity="1" fill-rule="nonzero"/><path fill="#ff8dbe" d="M 13.363281 267.804688 C 13.242188 267.945312 13.03125 267.960938 12.894531 267.839844 C 12.753906 267.71875 12.738281 267.507812 12.859375 267.371094 C 12.976562 267.230469 13.1875 267.214844 13.328125 267.335938 C 13.46875 267.457031 13.484375 267.664062 13.363281 267.804688 Z M 13.363281 267.804688 " fill-opacity="1" fill-rule="nonzero"/><path fill="#ff8dbe" d="M 14.070312 266.890625 C 13.949219 267.03125 13.738281 267.046875 13.601562 266.925781 C 13.460938 266.804688 13.445312 266.597656 13.566406 266.457031 C 13.683594 266.316406 13.894531 266.300781 14.035156 266.421875 C 14.175781 266.542969 14.191406 266.753906 14.070312 266.890625 Z M 14.070312 266.890625 " fill-opacity="1" fill-rule="nonzero"/><path fill="#ff8dbe" d="M 265.5 224.410156 C 265.28125 224.917969 264.691406 225.160156 264.183594 224.941406 C 263.671875 224.726562 263.433594 224.136719 263.648438 223.625 C 263.867188 223.113281 264.457031 222.875 264.964844 223.09375 C 265.476562 223.308594 265.714844 223.898438 265.5 224.410156 Z M 265.5 224.410156 " fill-opacity="1" fill-rule="nonzero"/><path fill="#ff8dbe" d="M 260.972656 223.183594 L 258.867188 222.53125 C 258.417969 222.390625 258.164062 221.914062 258.304688 221.460938 C 258.445312 221.011719 258.921875 220.757812 259.375 220.898438 L 261.480469 221.550781 C 261.933594 221.691406 262.183594 222.167969 262.042969 222.621094 C 261.90625 223.070312 261.425781 223.324219 260.972656 223.183594 Z M 260.972656 223.183594 " fill-opacity="1" fill-rule="nonzero"/><path fill="#ff8dbe" d="M 219.382812 205.769531 C 215.5625 205.175781 211.726562 204.675781 207.894531 204.167969 C 205.441406 203.839844 203 203.414062 200.542969 203.121094 C 198.933594 202.933594 197.28125 202.839844 195.71875 203.269531 C 194.941406 203.488281 194.195312 203.839844 193.558594 204.339844 C 192.921875 204.839844 192.402344 205.488281 192.0625 206.222656 C 191.476562 207.5 191.480469 208.992188 191.875 210.339844 C 192.269531 211.6875 193.003906 212.90625 193.769531 214.082031 C 195.367188 216.527344 196.96875 218.972656 198.410156 221.511719 C 200.074219 224.433594 201.753906 227.347656 203.601562 230.15625 C 201.878906 233.359375 199.949219 236.445312 197.929688 239.472656 C 196.386719 241.789062 194.777344 244.070312 193.445312 246.515625 C 192.78125 247.738281 192.191406 249.003906 191.785156 250.335938 C 191.378906 251.667969 191.15625 253.070312 191.285156 254.457031 C 191.390625 255.5625 191.726562 256.65625 192.339844 257.582031 C 192.945312 258.496094 193.820312 259.226562 194.832031 259.65625 C 194.84375 259.660156 194.859375 259.667969 194.871094 259.671875 C 195.640625 259.992188 196.472656 260.136719 197.308594 260.152344 C 198.140625 260.167969 198.96875 260.058594 199.785156 259.894531 C 202.683594 259.308594 205.46875 258.273438 208.292969 257.410156 C 212.347656 256.167969 216.390625 254.875 220.371094 253.414062 C 223.625 256.800781 226.839844 260.226562 230.070312 263.632812 C 231.171875 264.792969 232.265625 265.960938 233.410156 267.078125 C 234.65625 268.300781 235.996094 269.484375 237.605469 270.164062 C 237.621094 270.171875 237.640625 270.179688 237.660156 270.1875 C 238.476562 270.527344 239.355469 270.722656 240.238281 270.710938 C 241.121094 270.699219 242.003906 270.46875 242.773438 270.035156 C 243.847656 269.429688 244.675781 268.429688 245.179688 267.304688 C 245.683594 266.175781 245.886719 264.933594 245.949219 263.703125 C 246.1875 259.242188 245.515625 254.785156 245.390625 250.320312 C 245.296875 247.011719 245.1875 243.703125 244.976562 240.398438 C 247.683594 239.226562 250.347656 237.953125 253.007812 236.675781 C 255.601562 235.433594 258.25 234.292969 260.945312 233.28125 C 262.71875 232.621094 264.519531 231.96875 266.070312 230.890625 C 266.847656 230.347656 267.554688 229.699219 268.101562 228.929688 C 268.648438 228.15625 269.035156 227.269531 269.1875 226.335938 C 269.355469 225.289062 269.226562 224.203125 268.835938 223.21875 C 268.441406 222.238281 267.792969 221.367188 267.007812 220.65625 C 266.109375 219.84375 265.050781 219.25 263.929688 218.773438 C 263.097656 218.421875 262.226562 218.132812 261.363281 217.875 C 258.773438 217.101562 256.136719 216.472656 253.578125 215.601562 C 252.34375 215.179688 251.121094 214.714844 249.921875 214.207031 C 248.378906 213.554688 246.867188 212.824219 245.394531 212.019531 C 245.363281 207.195312 245.039062 202.378906 244.570312 197.574219 C 244.382812 195.65625 244.214844 193.734375 243.945312 191.824219 C 243.71875 190.21875 243.398438 188.597656 242.609375 187.183594 C 242.214844 186.476562 241.699219 185.832031 241.066406 185.328125 C 240.699219 185.035156 240.289062 184.792969 239.859375 184.609375 C 239.546875 184.476562 239.21875 184.375 238.886719 184.308594 C 237.996094 184.136719 237.0625 184.214844 236.203125 184.507812 C 235.347656 184.800781 234.566406 185.296875 233.882812 185.894531 C 232.515625 187.085938 231.515625 188.628906 230.480469 190.117188 C 229.445312 191.597656 228.375 193.050781 227.339844 194.527344 C 226.039062 196.382812 224.847656 198.3125 223.59375 200.199219 C 222.308594 202.144531 220.917969 204.019531 219.382812 205.769531 Z M 219.382812 205.769531 " fill-opacity="1" fill-rule="nonzero"/><path fill="#ff8dbe" d="M 209.140625 226.402344 C 208.867188 227.042969 208.125 227.34375 207.484375 227.074219 C 206.839844 226.800781 206.539062 226.058594 206.8125 225.414062 C 207.085938 224.773438 207.828125 224.472656 208.46875 224.742188 C 209.113281 225.015625 209.414062 225.757812 209.140625 226.402344 Z M 209.140625 226.402344 " fill-opacity="1" fill-rule="nonzero"/><path fill="#ff8dbe" d="M 198.5 208.992188 L 198.585938 208.316406 C 199.015625 211.25 200.121094 214.085938 201.789062 216.539062 C 202.851562 218.101562 204.144531 219.511719 205.609375 220.710938 C 206.148438 221.152344 206.230469 221.949219 205.789062 222.488281 C 205.347656 223.03125 204.550781 223.109375 204.007812 222.667969 C 202.355469 221.316406 200.898438 219.726562 199.695312 217.960938 C 197.8125 215.191406 196.566406 211.996094 196.085938 208.679688 C 196.050781 208.453125 196.082031 208.21875 196.171875 208.003906 C 196.445312 207.363281 197.1875 207.0625 197.828125 207.332031 C 198.472656 207.605469 198.773438 208.347656 198.5 208.992188 Z M 198.5 208.992188 " fill-opacity="1" fill-rule="nonzero"/><path fill="#ff8dbe" d="M 265.5 224.410156 C 265.28125 224.917969 264.691406 225.160156 264.183594 224.941406 C 263.671875 224.726562 263.433594 224.136719 263.648438 223.625 C 263.867188 223.113281 264.457031 222.875 264.964844 223.09375 C 265.476562 223.308594 265.714844 223.898438 265.5 224.410156 Z M 265.5 224.410156 " fill-opacity="1" fill-rule="nonzero"/><path fill="#ff8dbe" d="M 260.972656 223.183594 L 258.867188 222.53125 C 258.417969 222.390625 258.164062 221.914062 258.304688 221.460938 C 258.445312 221.011719 258.921875 220.757812 259.375 220.898438 L 261.480469 221.550781 C 261.933594 221.691406 262.183594 222.167969 262.042969 222.621094 C 261.90625 223.070312 261.425781 223.324219 260.972656 223.183594 Z M 260.972656 223.183594 " fill-opacity="1" fill-rule="nonzero"/><path fill="#ff8dbe" d="M 277.4375 387.523438 C 277.316406 387.832031 276.96875 387.980469 276.664062 387.859375 C 276.359375 387.738281 276.207031 387.390625 276.328125 387.085938 C 276.449219 386.78125 276.796875 386.632812 277.101562 386.753906 C 277.40625 386.875 277.558594 387.21875 277.4375 387.523438 Z M 277.4375 387.523438 " fill-opacity="1" fill-rule="nonzero"/><path fill="#ff8dbe" d="M 274.738281 386.863281 L 273.480469 386.507812 C 273.210938 386.429688 273.054688 386.148438 273.128906 385.878906 C 273.207031 385.609375 273.488281 385.453125 273.757812 385.53125 L 275.015625 385.886719 C 275.285156 385.964844 275.441406 386.246094 275.363281 386.515625 C 275.285156 386.78125 275.007812 386.941406 274.738281 386.863281 Z M 274.738281 386.863281 " fill-opacity="1" fill-rule="nonzero"/><g clip-path="url(#3b1499a030)"><path fill="#ff8dbe" d="M 249.839844 377.128906 C 247.566406 376.832031 245.289062 376.589844 243.007812 376.339844 C 241.550781 376.183594 240.097656 375.964844 238.636719 375.828125 C 237.679688 375.738281 236.699219 375.703125 235.78125 375.984375 C 235.320312 376.121094 234.882812 376.339844 234.511719 376.648438 C 234.144531 376.953125 233.84375 377.34375 233.652344 377.785156 C 233.324219 378.550781 233.347656 379.433594 233.601562 380.226562 C 233.851562 381.019531 234.304688 381.734375 234.777344 382.417969 C 235.757812 383.847656 236.742188 385.269531 237.632812 386.753906 C 238.660156 388.464844 239.695312 390.167969 240.832031 391.808594 C 239.855469 393.730469 238.753906 395.585938 237.601562 397.40625 C 236.71875 398.800781 235.796875 400.175781 235.042969 401.644531 C 234.667969 402.378906 234.335938 403.140625 234.113281 403.933594 C 233.890625 404.730469 233.777344 405.5625 233.875 406.382812 C 233.953125 407.035156 234.167969 407.679688 234.542969 408.21875 C 234.917969 408.753906 235.445312 409.175781 236.050781 409.414062 C 236.058594 409.417969 236.066406 409.421875 236.074219 409.421875 C 236.535156 409.601562 237.03125 409.675781 237.523438 409.675781 C 238.019531 409.671875 238.507812 409.59375 238.992188 409.484375 C 240.699219 409.097656 242.335938 408.445312 243.996094 407.890625 C 246.382812 407.097656 248.757812 406.277344 251.097656 405.355469 C 253.074219 407.316406 255.027344 409.300781 256.992188 411.273438 C 257.660156 411.945312 258.328125 412.621094 259.019531 413.265625 C 259.777344 413.972656 260.585938 414.65625 261.550781 415.039062 C 261.5625 415.042969 261.570312 415.046875 261.582031 415.050781 C 262.070312 415.238281 262.597656 415.34375 263.121094 415.324219 C 263.644531 415.304688 264.160156 415.15625 264.613281 414.886719 C 265.242188 414.511719 265.71875 413.910156 266 413.234375 C 266.28125 412.558594 266.382812 411.820312 266.40625 411.089844 C 266.480469 408.441406 266.023438 405.8125 265.882812 403.167969 C 265.78125 401.207031 265.667969 399.246094 265.5 397.292969 C 267.085938 396.558594 268.648438 395.765625 270.207031 394.972656 C 271.726562 394.199219 273.277344 393.484375 274.863281 392.847656 C 275.902344 392.429688 276.960938 392.019531 277.867188 391.355469 C 278.320312 391.027344 278.726562 390.628906 279.042969 390.167969 C 279.355469 389.703125 279.570312 389.167969 279.648438 388.613281 C 279.734375 387.992188 279.644531 387.347656 279.398438 386.773438 C 279.152344 386.195312 278.753906 385.6875 278.277344 385.28125 C 277.734375 384.8125 277.097656 384.472656 276.425781 384.207031 C 275.925781 384.007812 275.410156 383.851562 274.894531 383.710938 C 273.347656 383.289062 271.777344 382.953125 270.246094 382.472656 C 269.507812 382.242188 268.777344 381.984375 268.058594 381.699219 C 267.136719 381.332031 266.230469 380.921875 265.34375 380.464844 C 265.257812 377.609375 265 374.757812 264.652344 371.917969 C 264.515625 370.78125 264.386719 369.644531 264.199219 368.515625 C 264.042969 367.570312 263.832031 366.613281 263.34375 365.785156 C 263.097656 365.371094 262.785156 364.996094 262.402344 364.707031 C 262.179688 364.539062 261.933594 364.402344 261.675781 364.296875 C 261.488281 364.222656 261.292969 364.167969 261.097656 364.136719 C 260.566406 364.042969 260.015625 364.105469 259.507812 364.289062 C 259.003906 364.476562 258.550781 364.78125 258.152344 365.144531 C 257.359375 365.871094 256.789062 366.800781 256.195312 367.695312 C 255.605469 368.585938 254.988281 369.464844 254.398438 370.355469 C 253.652344 371.472656 252.972656 372.632812 252.257812 373.769531 C 251.523438 374.9375 250.726562 376.070312 249.839844 377.128906 Z M 249.839844 377.128906 " fill-opacity="1" fill-rule="nonzero"/></g><path fill="#ff8dbe" d="M 244.0625 389.503906 C 243.910156 389.886719 243.472656 390.074219 243.085938 389.921875 C 242.703125 389.769531 242.515625 389.335938 242.667969 388.949219 C 242.820312 388.566406 243.253906 388.378906 243.640625 388.53125 C 244.023438 388.683594 244.214844 389.117188 244.0625 389.503906 Z M 244.0625 389.503906 " fill-opacity="1" fill-rule="nonzero"/><path fill="#ff8dbe" d="M 237.507812 379.335938 L 237.550781 378.933594 C 237.84375 380.664062 238.539062 382.332031 239.5625 383.761719 C 240.214844 384.671875 241 385.492188 241.886719 386.179688 C 242.214844 386.433594 242.273438 386.902344 242.019531 387.230469 C 241.765625 387.558594 241.292969 387.617188 240.964844 387.363281 C 239.96875 386.585938 239.082031 385.664062 238.34375 384.632812 C 237.1875 383.019531 236.40625 381.140625 236.074219 379.183594 C 236.050781 379.050781 236.0625 378.910156 236.113281 378.78125 C 236.265625 378.398438 236.703125 378.207031 237.085938 378.363281 C 237.472656 378.515625 237.660156 378.949219 237.507812 379.335938 Z M 237.507812 379.335938 " fill-opacity="1" fill-rule="nonzero"/><path fill="#ff8dbe" d="M 277.4375 387.523438 C 277.316406 387.832031 276.96875 387.980469 276.664062 387.859375 C 276.359375 387.738281 276.207031 387.390625 276.328125 387.085938 C 276.449219 386.78125 276.796875 386.632812 277.101562 386.753906 C 277.40625 386.875 277.558594 387.21875 277.4375 387.523438 Z M 277.4375 387.523438 " fill-opacity="1" fill-rule="nonzero"/><path fill="#ff8dbe" d="M 274.738281 386.863281 L 273.480469 386.507812 C 273.210938 386.429688 273.054688 386.148438 273.128906 385.878906 C 273.207031 385.609375 273.488281 385.453125 273.757812 385.53125 L 275.015625 385.886719 C 275.285156 385.964844 275.441406 386.246094 275.363281 386.515625 C 275.285156 386.78125 275.007812 386.941406 274.738281 386.863281 Z M 274.738281 386.863281 " fill-opacity="1" fill-rule="nonzero"/><path fill="#ff8dbe" d="M 69.667969 390.351562 L 69.664062 390.347656 C 69.289062 390 69.265625 389.410156 69.613281 389.03125 C 69.964844 388.652344 70.554688 388.628906 70.933594 388.976562 C 71.3125 389.328125 71.335938 389.917969 70.984375 390.296875 C 70.636719 390.675781 70.042969 390.699219 69.667969 390.351562 Z M 69.667969 390.351562 " fill-opacity="1" fill-rule="nonzero"/><path fill="#ff8dbe" d="M 72.164062 386.773438 L 73.398438 385.136719 C 73.660156 384.785156 74.160156 384.714844 74.511719 384.980469 C 74.863281 385.246094 74.933594 385.746094 74.667969 386.09375 L 73.433594 387.734375 C 73.167969 388.082031 72.667969 388.152344 72.320312 387.890625 C 71.96875 387.625 71.898438 387.125 72.164062 386.773438 Z M 72.164062 386.773438 " fill-opacity="1" fill-rule="nonzero"/><path fill="#ff8dbe" d="M 100.5 355.851562 C 102.222656 352.699219 103.867188 349.5 105.519531 346.304688 C 106.578125 344.261719 107.71875 342.257812 108.75 340.199219 C 109.421875 338.851562 110.023438 337.433594 110.136719 335.929688 C 110.191406 335.179688 110.121094 334.417969 109.882812 333.703125 C 109.644531 332.988281 109.242188 332.328125 108.703125 331.800781 C 107.773438 330.886719 106.464844 330.417969 105.160156 330.339844 C 103.855469 330.261719 102.558594 330.519531 101.285156 330.820312 C 98.644531 331.449219 96 332.078125 93.324219 332.542969 C 90.242188 333.078125 87.164062 333.632812 84.121094 334.363281 C 81.863281 331.847656 79.769531 329.1875 77.753906 326.46875 C 76.214844 324.386719 74.726562 322.261719 73.003906 320.328125 C 72.144531 319.359375 71.21875 318.441406 70.179688 317.667969 C 69.144531 316.894531 67.984375 316.257812 66.734375 315.933594 C 65.730469 315.675781 64.667969 315.628906 63.664062 315.875 C 62.675781 316.113281 61.757812 316.652344 61.066406 317.402344 C 61.054688 317.410156 61.046875 317.421875 61.039062 317.429688 C 60.515625 318.003906 60.125 318.6875 59.851562 319.410156 C 59.574219 320.132812 59.410156 320.894531 59.296875 321.664062 C 58.898438 324.382812 58.925781 327.144531 58.792969 329.890625 C 58.601562 333.832031 58.460938 337.773438 58.488281 341.71875 C 54.5 343.5 50.488281 345.234375 46.488281 346.992188 C 45.125 347.589844 43.761719 348.179688 42.421875 348.828125 C 40.960938 349.535156 39.503906 350.335938 38.398438 351.527344 C 38.386719 351.542969 38.375 351.554688 38.363281 351.570312 C 37.808594 352.179688 37.359375 352.886719 37.09375 353.664062 C 36.828125 354.441406 36.75 355.285156 36.886719 356.09375 C 37.078125 357.226562 37.691406 358.265625 38.519531 359.0625 C 39.347656 359.855469 40.371094 360.421875 41.429688 360.867188 C 45.257812 362.480469 49.371094 363.296875 53.316406 364.589844 C 56.242188 365.550781 59.171875 366.496094 62.132812 367.351562 C 62.304688 370.09375 62.582031 372.824219 62.859375 375.554688 C 63.132812 378.21875 63.296875 380.894531 63.332031 383.570312 C 63.355469 385.328125 63.355469 387.113281 63.8125 388.8125 C 64.042969 389.660156 64.390625 390.480469 64.890625 391.203125 C 65.394531 391.925781 66.050781 392.542969 66.820312 392.972656 C 67.679688 393.449219 68.671875 393.679688 69.65625 393.644531 C 70.640625 393.609375 71.605469 393.316406 72.472656 392.851562 C 73.46875 392.320312 74.324219 391.582031 75.09375 390.75 C 75.664062 390.132812 76.1875 389.460938 76.6875 388.785156 C 78.179688 386.761719 79.558594 384.65625 81.128906 382.6875 C 81.886719 381.742188 82.675781 380.820312 83.5 379.925781 C 84.558594 378.78125 85.671875 377.6875 86.839844 376.652344 C 91.070312 378.144531 95.390625 379.378906 99.742188 380.480469 C 101.480469 380.921875 103.214844 381.378906 104.972656 381.742188 C 106.445312 382.050781 107.96875 382.28125 109.453125 382.035156 C 110.199219 381.914062 110.925781 381.664062 111.5625 381.269531 C 111.9375 381.039062 112.277344 380.757812 112.574219 380.4375 C 112.789062 380.207031 112.980469 379.953125 113.140625 379.683594 C 113.574219 378.957031 113.796875 378.117188 113.8125 377.273438 C 113.824219 376.429688 113.636719 375.589844 113.332031 374.804688 C 112.71875 373.234375 111.683594 371.871094 110.707031 370.496094 C 109.734375 369.125 108.800781 367.730469 107.835938 366.359375 C 106.621094 364.636719 105.308594 362.984375 104.046875 361.296875 C 102.753906 359.558594 101.546875 357.75 100.5 355.851562 Z M 100.5 355.851562 " fill-opacity="1" fill-rule="nonzero"/><path fill="#ff8dbe" d="M 85.667969 340.394531 C 85.1875 339.953125 85.160156 339.210938 85.601562 338.734375 C 86.042969 338.253906 86.785156 338.226562 87.261719 338.667969 C 87.738281 339.109375 87.769531 339.851562 87.328125 340.328125 C 86.886719 340.804688 86.144531 340.835938 85.667969 340.394531 Z M 85.667969 340.394531 " fill-opacity="1" fill-rule="nonzero"/><path fill="#ff8dbe" d="M 104.253906 336.5625 L 104.820312 336.851562 C 102.113281 336.304688 99.285156 336.375 96.613281 337.0625 C 94.910156 337.503906 93.269531 338.191406 91.761719 339.09375 C 91.203125 339.429688 90.480469 339.25 90.144531 338.691406 C 89.8125 338.136719 89.992188 337.414062 90.550781 337.078125 C 92.253906 336.054688 94.101562 335.28125 96.027344 334.785156 C 99.042969 334.007812 102.234375 333.925781 105.285156 334.546875 C 105.496094 334.589844 105.691406 334.691406 105.851562 334.835938 C 106.328125 335.277344 106.355469 336.019531 105.917969 336.5 C 105.476562 336.976562 104.730469 337.003906 104.253906 336.5625 Z M 104.253906 336.5625 " fill-opacity="1" fill-rule="nonzero"/><path fill="#ff8dbe" d="M 69.667969 390.351562 L 69.664062 390.347656 C 69.289062 390 69.265625 389.410156 69.613281 389.03125 C 69.964844 388.652344 70.554688 388.628906 70.933594 388.976562 C 71.3125 389.328125 71.335938 389.917969 70.984375 390.296875 C 70.636719 390.675781 70.042969 390.699219 69.667969 390.351562 Z M 69.667969 390.351562 " fill-opacity="1" fill-rule="nonzero"/><path fill="#ff8dbe" d="M 72.164062 386.773438 L 73.398438 385.136719 C 73.660156 384.785156 74.160156 384.714844 74.511719 384.980469 C 74.863281 385.246094 74.933594 385.746094 74.667969 386.09375 L 73.433594 387.734375 C 73.167969 388.082031 72.667969 388.152344 72.320312 387.890625 C 71.96875 387.625 71.898438 387.125 72.164062 386.773438 Z M 72.164062 386.773438 " fill-opacity="1" fill-rule="nonzero"/><path fill="#ff8dbe" d="M 303.808594 271.46875 C 303.71875 271.285156 303.792969 271.058594 303.980469 270.96875 C 304.167969 270.875 304.390625 270.953125 304.484375 271.140625 C 304.574219 271.324219 304.496094 271.550781 304.3125 271.640625 C 304.125 271.734375 303.902344 271.65625 303.808594 271.46875 Z M 303.808594 271.46875 " fill-opacity="1" fill-rule="nonzero"/><path fill="#ff8dbe" d="M 305.261719 270.492188 L 305.960938 270.054688 C 306.109375 269.960938 306.304688 270.007812 306.398438 270.15625 C 306.492188 270.304688 306.449219 270.503906 306.296875 270.597656 L 305.597656 271.03125 C 305.449219 271.125 305.25 271.082031 305.160156 270.929688 C 305.066406 270.78125 305.109375 270.582031 305.261719 270.492188 Z M 305.261719 270.492188 " fill-opacity="1" fill-rule="nonzero"/><path fill="#ff8dbe" d="M 320.34375 262.984375 C 321.445312 262.050781 322.519531 261.089844 323.601562 260.132812 C 324.292969 259.515625 325.011719 258.929688 325.691406 258.308594 C 326.140625 257.898438 326.570312 257.453125 326.828125 256.90625 C 326.957031 256.632812 327.042969 256.335938 327.054688 256.035156 C 327.070312 255.734375 327.011719 255.429688 326.886719 255.152344 C 326.667969 254.675781 326.246094 254.3125 325.769531 254.09375 C 325.292969 253.875 324.769531 253.785156 324.25 253.714844 C 323.167969 253.570312 322.085938 253.425781 321.015625 253.214844 C 319.78125 252.96875 318.546875 252.730469 317.304688 252.570312 C 316.820312 251.300781 316.417969 250 316.054688 248.691406 C 315.777344 247.6875 315.527344 246.675781 315.160156 245.703125 C 314.976562 245.214844 314.761719 244.738281 314.484375 244.300781 C 314.207031 243.859375 313.867188 243.453125 313.441406 243.152344 C 313.105469 242.910156 312.710938 242.738281 312.300781 242.6875 C 311.894531 242.632812 311.472656 242.703125 311.105469 242.882812 C 311.101562 242.886719 311.097656 242.890625 311.09375 242.890625 C 310.8125 243.03125 310.570312 243.230469 310.359375 243.460938 C 310.152344 243.695312 309.980469 243.957031 309.828125 244.226562 C 309.285156 245.1875 308.898438 246.226562 308.453125 247.238281 C 307.8125 248.6875 307.191406 250.144531 306.632812 251.628906 C 304.878906 251.722656 303.125 251.792969 301.375 251.875 C 300.777344 251.902344 300.179688 251.925781 299.585938 251.976562 C 298.933594 252.03125 298.273438 252.121094 297.6875 252.410156 C 297.679688 252.410156 297.675781 252.414062 297.667969 252.417969 C 297.371094 252.566406 297.101562 252.765625 296.890625 253.019531 C 296.675781 253.273438 296.527344 253.578125 296.460938 253.902344 C 296.371094 254.355469 296.449219 254.832031 296.644531 255.25 C 296.84375 255.667969 297.144531 256.027344 297.476562 256.347656 C 298.679688 257.503906 300.101562 258.402344 301.394531 259.457031 C 302.355469 260.238281 303.316406 261.015625 304.300781 261.761719 C 303.972656 262.816406 303.679688 263.878906 303.390625 264.941406 C 303.109375 265.980469 302.785156 267.007812 302.414062 268.015625 C 302.167969 268.679688 301.910156 269.347656 301.835938 270.050781 C 301.800781 270.402344 301.8125 270.757812 301.894531 271.101562 C 301.980469 271.445312 302.136719 271.773438 302.363281 272.042969 C 302.617188 272.34375 302.957031 272.574219 303.332031 272.703125 C 303.703125 272.832031 304.109375 272.863281 304.5 272.8125 C 304.949219 272.757812 305.378906 272.605469 305.785156 272.402344 C 306.089844 272.253906 306.382812 272.078125 306.664062 271.898438 C 307.515625 271.351562 308.339844 270.761719 309.210938 270.25 C 309.632812 270.003906 310.0625 269.773438 310.496094 269.558594 C 311.058594 269.28125 311.636719 269.03125 312.222656 268.8125 C 313.59375 269.980469 315.035156 271.066406 316.507812 272.109375 C 317.09375 272.523438 317.679688 272.945312 318.285156 273.335938 C 318.792969 273.664062 319.332031 273.972656 319.921875 274.09375 C 320.21875 274.152344 320.527344 274.164062 320.824219 274.109375 C 320.996094 274.078125 321.164062 274.019531 321.324219 273.945312 C 321.4375 273.886719 321.546875 273.820312 321.644531 273.742188 C 321.914062 273.53125 322.117188 273.25 322.242188 272.933594 C 322.371094 272.621094 322.421875 272.28125 322.417969 271.941406 C 322.417969 271.261719 322.222656 270.601562 322.058594 269.945312 C 321.890625 269.292969 321.742188 268.636719 321.578125 267.980469 C 321.371094 267.160156 321.117188 266.351562 320.886719 265.539062 C 320.652344 264.699219 320.460938 263.847656 320.34375 262.984375 Z M 320.34375 262.984375 " fill-opacity="1" fill-rule="nonzero"/><path fill="#ff8dbe" d="M 317.011719 255.050781 C 316.898438 254.816406 316.992188 254.535156 317.226562 254.417969 C 317.460938 254.304688 317.746094 254.402344 317.859375 254.632812 C 317.976562 254.867188 317.878906 255.152344 317.644531 255.265625 C 317.410156 255.382812 317.128906 255.285156 317.011719 255.050781 Z M 317.011719 255.050781 " fill-opacity="1" fill-rule="nonzero"/><path fill="#ff8dbe" d="M 324.53125 256.296875 L 324.703125 256.484375 C 323.769531 255.890625 322.695312 255.507812 321.597656 255.382812 C 320.894531 255.300781 320.179688 255.320312 319.484375 255.445312 C 319.226562 255.488281 318.980469 255.316406 318.9375 255.058594 C 318.890625 254.804688 319.0625 254.558594 319.320312 254.511719 C 320.105469 254.375 320.910156 254.351562 321.703125 254.445312 C 322.949219 254.585938 324.15625 255.015625 325.210938 255.691406 C 325.285156 255.734375 325.34375 255.800781 325.378906 255.878906 C 325.496094 256.113281 325.398438 256.398438 325.164062 256.511719 C 324.929688 256.625 324.648438 256.53125 324.53125 256.296875 Z M 324.53125 256.296875 " fill-opacity="1" fill-rule="nonzero"/><path fill="#ff8dbe" d="M 303.808594 271.46875 C 303.71875 271.285156 303.792969 271.058594 303.980469 270.96875 C 304.167969 270.875 304.390625 270.953125 304.484375 271.140625 C 304.574219 271.324219 304.496094 271.550781 304.3125 271.640625 C 304.125 271.734375 303.902344 271.65625 303.808594 271.46875 Z M 303.808594 271.46875 " fill-opacity="1" fill-rule="nonzero"/><path fill="#ff8dbe" d="M 305.261719 270.492188 L 305.960938 270.054688 C 306.109375 269.960938 306.304688 270.007812 306.398438 270.15625 C 306.492188 270.304688 306.449219 270.503906 306.296875 270.597656 L 305.597656 271.03125 C 305.449219 271.125 305.25 271.082031 305.160156 270.929688 C 305.066406 270.78125 305.109375 270.582031 305.261719 270.492188 Z M 305.261719 270.492188 " fill-opacity="1" fill-rule="nonzero"/><path fill="#ff8dbe" d="M 18.542969 135.835938 C 18.453125 135.648438 18.527344 135.425781 18.714844 135.332031 C 18.902344 135.242188 19.125 135.316406 19.21875 135.503906 C 19.308594 135.691406 19.230469 135.914062 19.046875 136.007812 C 18.859375 136.097656 18.636719 136.019531 18.542969 135.835938 Z M 18.542969 135.835938 " fill-opacity="1" fill-rule="nonzero"/><path fill="#ff8dbe" d="M 19.996094 134.855469 L 20.695312 134.417969 C 20.84375 134.324219 21.039062 134.371094 21.132812 134.519531 C 21.226562 134.671875 21.183594 134.867188 21.03125 134.960938 L 20.332031 135.398438 C 20.183594 135.492188 19.988281 135.445312 19.894531 135.296875 C 19.800781 135.144531 19.84375 134.949219 19.996094 134.855469 Z M 19.996094 134.855469 " fill-opacity="1" fill-rule="nonzero"/><path fill="#ff8dbe" d="M 35.078125 127.351562 C 36.179688 126.417969 37.253906 125.453125 38.335938 124.496094 C 39.027344 123.882812 39.746094 123.296875 40.425781 122.671875 C 40.875 122.265625 41.304688 121.820312 41.5625 121.273438 C 41.691406 121 41.777344 120.703125 41.789062 120.398438 C 41.804688 120.097656 41.746094 119.792969 41.621094 119.515625 C 41.40625 119.039062 40.980469 118.675781 40.503906 118.457031 C 40.027344 118.242188 39.503906 118.152344 38.984375 118.082031 C 37.902344 117.933594 36.820312 117.789062 35.75 117.578125 C 34.515625 117.335938 33.28125 117.097656 32.039062 116.933594 C 31.554688 115.664062 31.152344 114.363281 30.789062 113.054688 C 30.511719 112.054688 30.261719 111.039062 29.894531 110.066406 C 29.710938 109.582031 29.496094 109.105469 29.21875 108.664062 C 28.941406 108.222656 28.601562 107.820312 28.175781 107.515625 C 27.839844 107.277344 27.445312 107.105469 27.035156 107.050781 C 26.628906 107 26.207031 107.066406 25.839844 107.25 C 25.835938 107.25 25.832031 107.253906 25.828125 107.257812 C 25.546875 107.394531 25.304688 107.59375 25.09375 107.828125 C 24.886719 108.058594 24.714844 108.320312 24.5625 108.589844 C 24.019531 109.554688 23.632812 110.59375 23.1875 111.601562 C 22.546875 113.050781 21.925781 114.511719 21.367188 115.992188 C 19.613281 116.085938 17.863281 116.15625 16.109375 116.238281 C 15.511719 116.265625 14.914062 116.292969 14.320312 116.339844 C 13.667969 116.394531 13.007812 116.484375 12.421875 116.773438 C 12.414062 116.777344 12.410156 116.78125 12.402344 116.785156 C 12.105469 116.929688 11.835938 117.132812 11.625 117.386719 C 11.414062 117.636719 11.261719 117.941406 11.195312 118.265625 C 11.105469 118.71875 11.183594 119.195312 11.382812 119.613281 C 11.578125 120.03125 11.878906 120.390625 12.210938 120.710938 C 13.414062 121.867188 14.835938 122.765625 16.128906 123.820312 C 17.089844 124.601562 18.050781 125.378906 19.035156 126.128906 C 18.707031 127.179688 18.417969 128.242188 18.125 129.308594 C 17.84375 130.34375 17.519531 131.371094 17.148438 132.378906 C 16.902344 133.042969 16.644531 133.710938 16.570312 134.414062 C 16.535156 134.765625 16.546875 135.125 16.628906 135.46875 C 16.714844 135.808594 16.871094 136.136719 17.097656 136.40625 C 17.351562 136.710938 17.691406 136.941406 18.066406 137.070312 C 18.4375 137.199219 18.84375 137.226562 19.234375 137.179688 C 19.683594 137.121094 20.113281 136.96875 20.519531 136.769531 C 20.824219 136.617188 21.117188 136.441406 21.402344 136.261719 C 22.253906 135.71875 23.074219 135.125 23.945312 134.617188 C 24.367188 134.371094 24.796875 134.136719 25.234375 133.921875 C 25.792969 133.648438 26.371094 133.398438 26.957031 133.179688 C 28.328125 134.347656 29.769531 135.433594 31.242188 136.472656 C 31.828125 136.890625 32.414062 137.308594 33.019531 137.699219 C 33.527344 138.027344 34.066406 138.335938 34.65625 138.457031 C 34.953125 138.519531 35.261719 138.53125 35.558594 138.472656 C 35.730469 138.441406 35.902344 138.386719 36.058594 138.308594 C 36.171875 138.25 36.28125 138.183594 36.378906 138.105469 C 36.648438 137.898438 36.851562 137.613281 36.980469 137.300781 C 37.105469 136.984375 37.15625 136.644531 37.152344 136.304688 C 37.152344 135.628906 36.960938 134.96875 36.792969 134.3125 C 36.625 133.65625 36.476562 133 36.3125 132.347656 C 36.105469 131.527344 35.851562 130.71875 35.621094 129.902344 C 35.386719 129.0625 35.195312 128.210938 35.078125 127.351562 Z M 35.078125 127.351562 " fill-opacity="1" fill-rule="nonzero"/><path fill="#ff8dbe" d="M 31.746094 119.417969 C 31.632812 119.183594 31.726562 118.898438 31.960938 118.785156 C 32.195312 118.667969 32.480469 118.765625 32.59375 119 C 32.710938 119.234375 32.613281 119.515625 32.378906 119.632812 C 32.144531 119.746094 31.863281 119.652344 31.746094 119.417969 Z M 31.746094 119.417969 " fill-opacity="1" fill-rule="nonzero"/><path fill="#ff8dbe" d="M 39.265625 120.660156 L 39.4375 120.851562 C 38.503906 120.253906 37.429688 119.875 36.332031 119.746094 C 35.628906 119.664062 34.914062 119.6875 34.21875 119.808594 C 33.960938 119.851562 33.714844 119.679688 33.671875 119.425781 C 33.625 119.167969 33.796875 118.921875 34.054688 118.878906 C 34.839844 118.738281 35.644531 118.714844 36.4375 118.808594 C 37.683594 118.953125 38.890625 119.382812 39.945312 120.054688 C 40.019531 120.101562 40.078125 120.167969 40.113281 120.242188 C 40.230469 120.476562 40.132812 120.761719 39.898438 120.875 C 39.664062 120.992188 39.382812 120.894531 39.265625 120.660156 Z M 39.265625 120.660156 " fill-opacity="1" fill-rule="nonzero"/><path fill="#ff8dbe" d="M 18.542969 135.835938 C 18.453125 135.648438 18.527344 135.425781 18.714844 135.332031 C 18.902344 135.242188 19.125 135.316406 19.21875 135.503906 C 19.308594 135.691406 19.230469 135.914062 19.046875 136.007812 C 18.859375 136.097656 18.636719 136.019531 18.542969 135.835938 Z M 18.542969 135.835938 " fill-opacity="1" fill-rule="nonzero"/><path fill="#ff8dbe" d="M 19.996094 134.855469 L 20.695312 134.417969 C 20.84375 134.324219 21.039062 134.371094 21.132812 134.519531 C 21.226562 134.671875 21.183594 134.867188 21.03125 134.960938 L 20.332031 135.398438 C 20.183594 135.492188 19.988281 135.445312 19.894531 135.296875 C 19.800781 135.144531 19.84375 134.949219 19.996094 134.855469 Z M 19.996094 134.855469 " fill-opacity="1" fill-rule="nonzero"/></svg>